<svg xmlns="http://www.w3.org/2000/svg" viewBox="0 0 896.49 767.29"><defs><style>.cls-1{fill:#822c11;}.cls-2{opacity:0.5;}.cls-3{fill:#ffe3bb;}.cls-4{font-size:210px;fill:#591c05;font-family:SweetSansPro-Bold, Sweet Sans Pro;font-weight:700;}.cls-5{letter-spacing:0.04em;}.cls-6{letter-spacing:0.02em;}</style></defs><g id="レイヤー_2" data-name="レイヤー 2"><g id="レイヤー_2-2" data-name="レイヤー 2"><path class="cls-1" d="M228.89,0s-11,33.15-22.1,33.15-22.1,11.05-33.15,77.34S129.45,221,162.6,232s44.19-33.15,44.19-33.15,11.05,11.05,33.15,0S251,165.74,251,165.74s11.05,11,22.1,33.14,0,88.4,11.05,99.44c0,0-121.54,77.35-121.54,88.4s51.94,74.09,53.59,81.24,40.9,0,40.9,0l-39.25-70.19,66.3-44.2s11-11.05,11,0,11.05,176.79,11.05,176.79h33.15s0-176.79,11.05-187.84,66.29,11.05,99.44,11.05,99.44-22.1,110.49-22.1,11,11,11,22.1-33.15,176.79-33.15,176.79h33.15l22.1-88.4,11,88.4h33.15V228.49c0-7.51,0-62.75-44.2-62.75H427.77s-11-33.15-66.29-88.4C333.31,49.17,251,22.1,251,22.1S239.94,0,228.89,0Z"/><path class="cls-1" d="M623.14,193s50.57-16.22,98.86,72.17,15.15,132.59,15.15,132.59l-11-33.15-11.05,33.15-11-33.15-18.31,33.15s5-168.25-54.64-189.09Z"/><g class="cls-2"><circle class="cls-3" cx="453.14" cy="223" r="12.17"/><circle class="cls-3" cx="453.14" cy="204.74" r="4.57"/><circle class="cls-3" cx="453.14" cy="195.61" r="3.04"/><circle class="cls-3" cx="453.14" cy="189.52" r="1.52"/><circle class="cls-3" cx="440.23" cy="210.09" r="4.57"/><circle class="cls-3" cx="433.77" cy="203.63" r="3.04"/><circle class="cls-3" cx="429.47" cy="199.33" r="1.52"/><circle class="cls-3" cx="434.88" cy="223" r="4.57"/><circle class="cls-3" cx="425.75" cy="223" r="3.04"/><circle class="cls-3" cx="419.66" cy="223" r="1.52"/><circle class="cls-3" cx="440.23" cy="235.91" r="4.57"/><circle class="cls-3" cx="433.77" cy="242.37" r="3.04"/><circle class="cls-3" cx="429.47" cy="246.67" r="1.52"/><circle class="cls-3" cx="453.14" cy="241.26" r="4.57"/><circle class="cls-3" cx="453.14" cy="250.39" r="3.04"/><circle class="cls-3" cx="453.14" cy="256.48" r="1.52"/><circle class="cls-3" cx="466.05" cy="235.91" r="4.57"/><circle class="cls-3" cx="472.51" cy="242.37" r="3.04"/><circle class="cls-3" cx="476.81" cy="246.67" r="1.52"/><circle class="cls-3" cx="471.4" cy="223" r="4.57"/><circle class="cls-3" cx="480.53" cy="223" r="3.04"/><circle class="cls-3" cx="486.62" cy="223" r="1.52"/><circle class="cls-3" cx="466.05" cy="210.09" r="4.57"/><circle class="cls-3" cx="472.51" cy="203.63" r="3.04"/><circle class="cls-3" cx="476.81" cy="199.33" r="1.52"/></g><g class="cls-2"><circle class="cls-3" cx="558.14" cy="223" r="12.17"/><circle class="cls-3" cx="558.14" cy="204.74" r="4.57"/><circle class="cls-3" cx="558.14" cy="195.61" r="3.04"/><circle class="cls-3" cx="558.14" cy="189.52" r="1.52"/><circle class="cls-3" cx="545.23" cy="210.09" r="4.57"/><circle class="cls-3" cx="538.77" cy="203.63" r="3.04"/><circle class="cls-3" cx="534.47" cy="199.33" r="1.52"/><circle class="cls-3" cx="539.88" cy="223" r="4.57"/><circle class="cls-3" cx="530.75" cy="223" r="3.04"/><circle class="cls-3" cx="524.66" cy="223" r="1.52"/><circle class="cls-3" cx="545.23" cy="235.91" r="4.57"/><circle class="cls-3" cx="538.77" cy="242.37" r="3.04"/><circle class="cls-3" cx="534.47" cy="246.67" r="1.52"/><circle class="cls-3" cx="558.14" cy="241.26" r="4.57"/><circle class="cls-3" cx="558.14" cy="250.39" r="3.04"/><circle class="cls-3" cx="558.14" cy="256.48" r="1.52"/><circle class="cls-3" cx="571.05" cy="235.91" r="4.57"/><circle class="cls-3" cx="577.51" cy="242.37" r="3.04"/><circle class="cls-3" cx="581.81" cy="246.67" r="1.52"/><circle class="cls-3" cx="576.4" cy="223" r="4.57"/><circle class="cls-3" cx="585.53" cy="223" r="3.04"/><circle class="cls-3" cx="591.62" cy="223" r="1.52"/><circle class="cls-3" cx="571.05" cy="210.09" r="4.57"/><circle class="cls-3" cx="577.51" cy="203.63" r="3.04"/><circle class="cls-3" cx="581.81" cy="199.33" r="1.52"/></g><g class="cls-2"><circle class="cls-3" cx="355.14" cy="223" r="12.17"/><circle class="cls-3" cx="355.14" cy="204.74" r="4.57"/><circle class="cls-3" cx="355.14" cy="195.61" r="3.04"/><circle class="cls-3" cx="355.14" cy="189.52" r="1.52"/><circle class="cls-3" cx="342.23" cy="210.09" r="4.57"/><circle class="cls-3" cx="335.77" cy="203.63" r="3.04"/><circle class="cls-3" cx="331.47" cy="199.33" r="1.52"/><circle class="cls-3" cx="336.88" cy="223" r="4.57"/><circle class="cls-3" cx="327.75" cy="223" r="3.04"/><circle class="cls-3" cx="321.66" cy="223" r="1.52"/><circle class="cls-3" cx="342.23" cy="235.91" r="4.57"/><circle class="cls-3" cx="335.77" cy="242.37" r="3.04"/><circle class="cls-3" cx="331.47" cy="246.67" r="1.52"/><circle class="cls-3" cx="355.14" cy="241.26" r="4.57"/><circle class="cls-3" cx="355.14" cy="250.39" r="3.04"/><circle class="cls-3" cx="355.14" cy="256.48" r="1.52"/><circle class="cls-3" cx="368.05" cy="235.91" r="4.57"/><circle class="cls-3" cx="374.51" cy="242.37" r="3.04"/><circle class="cls-3" cx="378.81" cy="246.67" r="1.52"/><circle class="cls-3" cx="373.4" cy="223" r="4.57"/><circle class="cls-3" cx="382.53" cy="223" r="3.04"/><circle class="cls-3" cx="388.62" cy="223" r="1.52"/><circle class="cls-3" cx="368.05" cy="210.09" r="4.57"/><circle class="cls-3" cx="374.51" cy="203.63" r="3.04"/><circle class="cls-3" cx="378.81" cy="199.33" r="1.52"/></g><text class="cls-4" transform="translate(0 702.82)"><tspan class="cls-5">CI</tspan><tspan x="250.95" y="0">RC</tspan><tspan class="cls-6" x="575.61" y="0">U</tspan><tspan x="743.19" y="0">S</tspan></text></g></g></svg>