<?xml version="1.0" encoding="iso-8859-1"?>
<!-- Generator: Adobe Illustrator 18.0.0, SVG Export Plug-In . SVG Version: 6.00 Build 0)  -->
<!DOCTYPE svg PUBLIC "-//W3C//DTD SVG 1.1//EN" "http://www.w3.org/Graphics/SVG/1.1/DTD/svg11.dtd">
<svg version="1.1" id="_x31_" xmlns="http://www.w3.org/2000/svg" xmlns:xlink="http://www.w3.org/1999/xlink" x="0px" y="0px"
	 viewBox="0 0 512 512" style="enable-background:new 0 0 512 512;" xml:space="preserve">
<g>
	<rect style="fill:#F6B598;" width="512" height="512"/>
	<polygon style="opacity:0.1;fill:#040000;" points="291.021,115.098 148.531,257.587 221.184,330.24 175.565,330.24 
		96.768,409.037 100.966,413.236 199.731,512 402.944,512 409.856,512 512,512 512,336.077 	"/>
	<g>
		<g>
			<g>
				<path style="fill:#6D453D;" d="M344.809,276.428l-34.351,34.351l-3.838-4.064l-66.106-69.976
					c-2.522-2.522-2.319-6.852,0.451-9.621l20.185-20.185c2.77-2.77,7.099-2.973,9.621-0.451l69.973,66.11L344.809,276.428z"/>
				<path style="fill:#845245;" d="M440.099,366.801c0.081,0.082,0.169,0.157,0.253,0.241c9.874,9.874,9.089,26.673-1.757,37.519
					s-27.645,11.632-37.519,1.757c-0.084-0.084-0.16-0.172-0.242-0.253c-0.448-0.256-0.867-0.564-1.245-0.943l-87.554-92.675
					l-1.577-1.67l34.351-34.351l1.67,1.577l92.678,87.551C439.534,365.934,439.84,366.356,440.099,366.801z"/>
				<path style="fill:#EAC16D;" d="M281.432,192.472L226.504,247.4c-1.729,1.729-4.533,1.729-6.263,0l-45.667-45.667
					c-1.729-1.729-1.729-4.533,0-6.263l54.928-54.928c1.729-1.729,4.533-1.729,6.263,0l45.667,45.667
					C283.161,187.939,283.161,190.743,281.432,192.472z"/>
				<polygon style="fill:#EAC16D;" points="346.478,278.005 312.034,312.449 310.458,310.779 306.62,306.714 340.744,272.591 
					344.809,276.428 				"/>
				<g>
					<g>
						<path style="fill:#6D453D;" d="M194.029,266.533c1.675-11.732,10.939-20.996,22.673-22.673l-35.417-35.417
							c-1.677,11.734-10.941,20.998-22.673,22.673L194.029,266.533z"/>
						<path style="fill:#845245;" d="M136.059,230.485l11.242-11.242c1.091-1.091,2.861-1.091,3.952,0l51.479,51.479
							c1.091,1.091,1.091,2.861,0,3.952l-11.242,11.242c-4.539,4.539-11.898,4.539-16.437,0l-38.993-38.993
							C131.521,242.383,131.521,235.024,136.059,230.485z"/>
						<path style="fill:#845245;" d="M207.207,270.198l-11.242,11.242c-1.091,1.091-2.861,1.091-3.952,0l-51.479-51.479
							c-1.091-1.091-1.091-2.861,0-3.952l11.242-11.242c4.539-4.539,11.898-4.539,16.437,0l38.993,38.993
							C211.746,258.299,211.746,265.659,207.207,270.198z"/>
						<path style="fill:#BC9381;" d="M199.8,277.605L199.8,277.605c0.703-0.703,0.703-1.843,0-2.546l-52.884-52.884
							c-0.703-0.703-1.843-0.703-2.546,0l0,0c-1.281,1.281-1.281,3.358,0,4.639l50.792,50.792
							C196.442,278.886,198.519,278.886,199.8,277.605z"/>
					</g>
					<path style="fill:#845245;" d="M170.599,195.946l0.616-0.616c0.578-0.578,1.516-0.578,2.094,0l53.337,53.337
						c0.578,0.578,0.578,1.516,0,2.094l-0.616,0.616c-2.405,2.405-6.304,2.405-8.708,0l-46.722-46.722
						C168.194,202.249,168.194,198.35,170.599,195.946z"/>
				</g>
				<g>
					<g>
						<path style="fill:#6D453D;" d="M265.042,124.686c-1.675,11.732-10.939,20.996-22.673,22.673l35.417,35.417
							c1.677-11.734,10.941-20.998,22.673-22.673L265.042,124.686z"/>
						<path style="fill:#845245;" d="M264.411,102.134l-11.242,11.242c-1.091,1.091-1.091,2.86,0,3.952l51.479,51.479
							c1.091,1.091,2.86,1.091,3.952,0l11.242-11.242c4.539-4.539,4.539-11.898,0-16.437l-38.993-38.993
							C276.309,97.595,268.95,97.595,264.411,102.134z"/>
						<path style="fill:#845245;" d="M304.124,173.282l11.242-11.242c1.091-1.091,1.091-2.86,0-3.952l-51.479-51.479
							c-1.091-1.091-2.861-1.091-3.952,0l-11.242,11.242c-4.539,4.539-4.539,11.898,0,16.437l38.993,38.993
							C292.225,177.82,299.585,177.82,304.124,173.282z"/>
						<path style="fill:#BC9381;" d="M311.531,165.874L311.531,165.874c-0.703,0.703-1.843,0.703-2.546,0l-52.884-52.884
							c-0.703-0.703-0.703-1.843,0-2.546l0,0c1.281-1.281,3.358-1.281,4.639,0l50.792,50.792
							C312.812,162.516,312.812,164.593,311.531,165.874z"/>
					</g>
					<path style="fill:#845245;" d="M229.872,136.673l-0.616,0.616c-0.578,0.578-0.578,1.516,0,2.094l53.337,53.337
						c0.578,0.578,1.515,0.578,2.094,0l0.616-0.616c2.405-2.405,2.405-6.304,0-8.708l-46.722-46.722
						C236.175,134.268,232.276,134.268,229.872,136.673z"/>
				</g>
			</g>
			<path style="opacity:0.06;fill:#040000;" d="M264.411,102.134l-4.475,4.476l-6.767,6.767l-4.476,4.476
				c-4.539,4.539-4.539,11.898,0,16.437l7.071,7.071c-2.327,1.956-4.992,3.522-7.897,4.6l-9.287-9.287
				c-2.405-2.405-6.303-2.405-8.708,0l-0.616,0.616c-0.578,0.578-0.578,1.516,0,2.094l0.741,0.741
				c-0.171,0.128-0.338,0.264-0.494,0.42l-27.464,27.464l236.556,236.556c10.846-10.846,11.632-27.645,1.757-37.519
				c-0.084-0.084-0.172-0.16-0.253-0.242c-0.259-0.445-0.564-0.867-0.943-1.245l-92.678-87.551l-1.67-1.577l-4.064-3.837
				l-69.973-66.109c-0.591-0.591-1.283-1.026-2.028-1.32l12.689-12.689c0.155-0.156,0.292-0.323,0.42-0.494l0.741,0.741
				c0.578,0.578,1.515,0.578,2.094,0l0.616-0.616c2.405-2.405,2.405-6.303,0-8.708l-6.117-6.117c1.078-2.905,2.644-5.57,4.6-7.897
				l3.901,3.901c4.539,4.539,11.898,4.539,16.437,0l4.475-4.476l6.767-6.766l4.475-4.476c4.539-4.539,4.539-11.898,0-16.437
				l-38.993-38.993C276.309,97.595,268.95,97.595,264.411,102.134z"/>
		</g>
		<g>
			<path style="fill:#E9754E;" d="M237.107,342.938v53.094c0,7.015-5.734,12.698-12.697,12.698h-93.389
				c-6.963,0-12.698-5.682-12.698-12.698v-53.094c0-6.964,5.734-12.698,12.698-12.698h93.389c1.587,0,3.174,0.307,4.557,0.871
				c3.328,1.28,5.991,3.943,7.271,7.27C236.8,339.763,237.107,341.351,237.107,342.938z"/>
			<path style="fill:#845245;" d="M107.602,362.225h140.222c6.472,0,11.767,5.295,11.767,11.767v34.73
				c0,2.484-2.033,4.517-4.517,4.517H100.35c-2.484,0-4.517-2.033-4.517-4.517v-34.729
				C95.833,367.521,101.129,362.225,107.602,362.225z"/>
			<path style="opacity:0.1;fill:#040000;" d="M259.584,374.016v34.713c0,2.457-2.048,4.506-4.506,4.506h-77.363V330.24h46.694
				c1.587,0,3.174,0.307,4.557,0.871c3.328,1.28,5.991,3.943,7.271,7.27c0.563,1.382,0.87,2.97,0.87,4.557v19.302h10.701
				C254.31,362.24,259.584,367.514,259.584,374.016z"/>
		</g>
	</g>
</g>
</svg>
