<svg xmlns="http://www.w3.org/2000/svg" xmlns:xlink="http://www.w3.org/1999/xlink" viewBox="0 0 2000 4000" width="2000px" height="4000px"><defs><style>.cls-1{isolation:isolate;}.cls-2{fill:#eedeca;}.cls-3{opacity:0.8;mix-blend-mode:soft-light;}.cls-4{fill:#ff181e;}.cls-5{fill:#ff6e1b;}.cls-6{fill:#ffbf38;}.cls-7{fill:#ff3b40;}.cls-8{fill:#fff;}.cls-9{fill:#00b7ba;}.cls-10{fill:#ff5194;}.cls-11{fill:#ffb11d;}.cls-12{fill:#009a6c;}.cls-13{fill:#38a9ff;}.cls-14{fill:#3869e3;}.cls-15{opacity:0.4;fill:url(#名称未設定グラデーション_33);}</style><radialGradient id="名称未設定グラデーション_33" cx="1000" cy="2000" r="1581.14" gradientUnits="userSpaceOnUse"><stop offset="0" stop-color="#fff"/><stop offset="0.21" stop-color="#fffdfb"/><stop offset="0.43" stop-color="#fff6ee"/><stop offset="0.66" stop-color="#ffebd9"/><stop offset="0.89" stop-color="#fedcbb"/><stop offset="1" stop-color="#fed4ab"/></radialGradient></defs><g class="cls-1"><g id="レイヤー_1" data-name="レイヤー 1"><rect class="cls-2" width="2000" height="4000"/><g class="cls-3"><path class="cls-4" d="M283,106.24l-.24.1.2-.08Z"/><path class="cls-4" d="M284.62,105.56l.16-.06c1.55-.66,3.1-1.3,4.65-1.88,166.67-69,367.25,52.55,433.35,200.44,67,149.86-103,556.31-103,556.31S209.11,713.45,142.13,563.59c-66.28-148.28-28-377.2,135.46-454.73l1.21-.58c1.34-.63,2.62-1.34,4-1.94C85.2,194.65-11.09,409.16,67.71,585.46s557,285.91,557,285.91S862,442,783.21,265.66C704.65,89.9,481.75,18.51,284.62,105.56Z"/><path class="cls-5" d="M655,343.07c54.79,122.56-34.84,472.69-41.69,499l.22,1.34-.27-.35,0,.48-.25-.21-.1.37s-339.46-177.22-396.4-304.6c-56-125.36-75.66-361.17,59.79-429.44.47-.25.91-.52,1.37-.77C114.09,186.39,75.85,415.31,142.13,563.59c67,149.86,477.67,296.78,477.67,296.78s170-406.45,103-556.31C656.68,156.17,456.1,34.64,289.43,103.62l1.86-.63C432.32,49.51,599.14,218.21,655,343.07Z"/><path class="cls-5" d="M282,106.73c.27-.12.51-.27.78-.39-1.36.6-2.64,1.31-4,1.94C279.85,107.75,280.92,107.23,282,106.73Z"/><path class="cls-5" d="M283,106.26l-.2.08.17-.07Z"/><path class="cls-6" d="M276.22,109.63C140.77,177.9,160.4,413.71,216.43,539.07c56.94,127.38,396.4,304.6,396.4,304.6l.1-.37C604,835.78,343.11,616,295.55,509.61,248.12,403.49,165.26,169.94,276.22,109.63Z"/><path class="cls-6" d="M283,106.27l-.17.07c-.27.12-.51.27-.78.39Z"/><path class="cls-6" d="M580.23,382.37c46.57,104.18,34,434.77,33,459.61V842c6.85-26.28,96.48-376.41,41.69-499C599.14,218.21,432.32,49.51,291.29,103,410.15,61.78,532.91,276.5,580.23,382.37Z"/><path class="cls-4" d="M283.39,106.07l-.2.08-.17.09.25-.11Z"/><path class="cls-4" d="M277.59,108.86l1.21-.58Z"/><path class="cls-4" d="M289.43,103.62c-1.55.58-3.1,1.22-4.65,1.88,1.12-.48,2.24-1,3.36-1.35Z"/><path class="cls-4" d="M283.2,106.17l.07,0-.25.11,0,0A1.45,1.45,0,0,1,283.2,106.17Z"/><path class="cls-4" d="M282,106.73c-1.08.5-2.15,1-3.2,1.55l-1.21.58c-.46.25-.9.52-1.37.77C278.15,108.66,280,107.63,282,106.73Z"/><path class="cls-4" d="M613,843.08l.19.43,0-.48-.16-.2C613,842.93,613,843,613,843.08Z"/><path class="cls-4" d="M283.2,106.17a1.45,1.45,0,0,0-.22.09h0l.19-.07Z"/><path class="cls-4" d="M612.93,843.3l.25.21-.19-.43C613,843.15,613,843.24,612.93,843.3Z"/><path class="cls-4" d="M289.33,103.76l2-.77-1.86.63-1.29.53Z"/><path class="cls-4" d="M516.72,415.77c39.61,88.63,92.65,403,96.53,426.21,1-24.84,13.55-355.43-33-459.61C532.91,276.5,410.15,61.78,291.29,103l-2,.77C390,69.77,476.36,325.47,516.72,415.77Z"/><path class="cls-4" d="M612.65,842.32l.34.76c0-.08,0-.15.06-.25Z"/><path class="cls-4" d="M295.55,509.61C343.11,616,604,835.78,612.93,843.3c0-.06,0-.15.06-.22l-.34-.76c-14.11-18-210.2-269-249.85-357.75-41.08-91.91-182-331.81-79.66-378.37l-.19.07-.95.46c-2,.9-3.85,1.93-5.78,2.9C165.26,169.94,248.12,403.49,295.55,509.61Z"/><path class="cls-5" d="M283.54,106l-.15.07.16-.06Z"/><path class="cls-5" d="M284.44,105.64l.18-.08c-.36.16-.72.27-1.08.44h0C283.85,105.87,284.14,105.77,284.44,105.64Z"/><path class="cls-5" d="M284.78,105.5l-.16.06-.18.08Z"/><path class="cls-5" d="M613.21,843l.27.35-.22-1.34,0,.07C613.23,842.5,613.21,842.8,613.21,843Z"/><path class="cls-5" d="M613.24,842.11l0-.07V842S613.24,842.07,613.24,842.11Z"/><path class="cls-5" d="M283.55,106h0l.89-.37C284.14,105.77,283.85,105.87,283.55,106Z"/><path class="cls-5" d="M283.55,106h0l-.16.06-.12.06C283.36,106.09,283.46,106.06,283.55,106Z"/><path class="cls-5" d="M283.55,106h0c1.52-.67,3.06-1.23,4.59-1.87-1.12.4-2.24.87-3.36,1.35l-.34.14Z"/><path class="cls-5" d="M283.55,106c-.09,0-.19.08-.28.12l-.07,0a3.68,3.68,0,0,1,.35-.15Z"/><path class="cls-5" d="M283.56,106h0a3.68,3.68,0,0,0-.35.15l-.06,0C283.28,106.13,283.42,106.09,283.56,106Z"/><path class="cls-5" d="M613.05,842.83l.16.2c0-.23,0-.53,0-.92C613.17,842.39,613.11,842.63,613.05,842.83Z"/><path class="cls-5" d="M289.33,103.76l-1.19.39c-1.53.64-3.07,1.2-4.59,1.87h0C285.47,105.19,287.4,104.52,289.33,103.76Z"/><path class="cls-6" d="M612.65,842.32l.4.51c.06-.2.12-.44.19-.72,0,0,0-.09,0-.13-3.88-23.17-56.92-337.58-96.53-426.21-40.36-90.3-126.72-346-227.39-312-1.93.76-3.86,1.43-5.77,2.27Z"/><path class="cls-5" d="M283.14,106.2C180.8,152.76,321.72,392.66,362.8,484.57c39.65,88.71,235.74,339.73,249.85,357.75L283.56,106C283.42,106.09,283.28,106.13,283.14,106.2Z"/><rect class="cls-7" x="567.26" y="818.68" width="156.74" height="198.94" transform="translate(-318.46 343.38) rotate(-24.08)"/><rect class="cls-8" x="572.92" y="846.73" width="108.52" height="60.29" transform="translate(-303.22 332.25) rotate(-24.08)"/></g><g class="cls-3"><path class="cls-9" d="M1883.37,1326.43c-.08,0-.16-.1-.25-.14a2.25,2.25,0,0,1,.21.12Z"/><path class="cls-9" d="M1885,1327.43l.16.1c1.62,1,3.22,1.92,4.75,2.94,171.72,104,194.89,364.08,105.78,520.84-90.29,158.84-566.91,274.23-566.91,274.23s-138.86-465.25-48.57-624.09c89.34-157.17,319.9-273.73,497.2-178.15l1.32.69c1.45.79,2.92,1.48,4.36,2.3-209.43-119-465.32-64.06-571.55,122.81s110.6,688.11,110.6,688.11,541.6-70.13,647.82-257C2175.89,1693.91,2093,1446.9,1885,1327.43Z"/><path class="cls-10" d="M1916,1816.17c-73.85,129.91-447,280.25-475.1,291.43l-1,1.08.13-.48-.45.3s0-.14,0-.37l-.4.16s-64.73-421.32,12-556.34c75.53-132.88,274.14-305.89,424.65-229.37.53.25,1.06.46,1.59.72-177.3-95.58-407.86,21-497.2,178.15-90.29,158.84,48.57,624.09,48.57,624.09s476.62-115.39,566.91-274.23c89.11-156.76,65.94-416.79-105.78-520.84.61.4,1.19.83,1.79,1.24C2032.65,1423,1991.26,1683.81,1916,1816.17Z"/><path class="cls-10" d="M1883.33,1326.41a2.25,2.25,0,0,0-.21-.12l.17.1Z"/><path class="cls-10" d="M1882.26,1325.84c.28.16.58.28.86.45-1.44-.82-2.91-1.51-4.36-2.3C1879.93,1324.59,1881.09,1325.2,1882.26,1325.84Z"/><path class="cls-11" d="M1883.29,1326.39l-.17-.1c-.28-.17-.58-.29-.86-.45Z"/><path class="cls-11" d="M1831.53,1775c-62.77,110.43-367.59,317-390.54,332.51l-.06.06c28.1-11.18,401.25-161.52,475.1-291.43,75.23-132.36,116.62-393.19-24.3-484.46C2007,1411.18,1895.32,1662.82,1831.53,1775Z"/><path class="cls-11" d="M1875.85,1322.58c-150.51-76.52-349.12,96.49-424.65,229.37-76.74,135-12,556.34-12,556.34l.4-.16c.85-13,26.07-391.83,90.18-504.62C1593.71,1491,1748.62,1262.78,1875.85,1322.58Z"/><path class="cls-9" d="M1883.77,1326.66l-.21-.13-.19-.1.26.16Z"/><path class="cls-9" d="M1877.44,1323.3l1.32.69Z"/><path class="cls-9" d="M1883.55,1326.55l.08,0-.26-.16,0,0Z"/><path class="cls-9" d="M1889.94,1330.47c-1.53-1-3.13-2-4.75-2.94,1.17.69,2.33,1.39,3.43,2.12Z"/><path class="cls-9" d="M1882.26,1325.84c-1.17-.64-2.33-1.25-3.5-1.85l-1.32-.69c-.53-.26-1.06-.47-1.59-.72C1878,1323.66,1880.14,1324.66,1882.26,1325.84Z"/><path class="cls-9" d="M1883.55,1326.55l-.22-.14,0,0,.19.12Z"/><path class="cls-9" d="M1439.83,2108l-.27.46.45-.3c0-.08,0-.17.08-.27Z"/><path class="cls-9" d="M1889.75,1330.46l2,1.25c-.6-.41-1.18-.84-1.79-1.24l-1.32-.82C1889,1329.92,1889.37,1330.2,1889.75,1330.46Z"/><path class="cls-9" d="M1439.59,2108.13c0,.23,0,.37,0,.37l.27-.46Z"/><path class="cls-9" d="M1440.28,2107.23l-.45.81.26-.11C1440.14,2107.74,1440.21,2107.51,1440.28,2107.23Z"/><path class="cls-9" d="M1759.71,1740.07c-53.4,93.94-300.49,348.73-318.72,367.47,23-15.46,327.77-222.08,390.54-332.51,63.79-112.21,175.5-363.85,60.2-443.32l-2-1.25C1986.59,1398.37,1814.12,1644.35,1759.71,1740.07Z"/><path class="cls-9" d="M1529.77,1603.51c-64.11,112.79-89.33,491.63-90.18,504.62l.24-.09.45-.81c6.87-24.53,102.83-365.87,156.28-459.9,55.37-97.41,177.71-381.93,286.92-320.82l-.19-.12-1-.55c-2.12-1.18-4.28-2.18-6.41-3.26C1748.62,1262.78,1593.71,1491,1529.77,1603.51Z"/><path class="cls-5" d="M1883.93,1326.75a1.29,1.29,0,0,0-.16-.09l.16.1Z"/><path class="cls-5" d="M1884.85,1327.32l.18.11c-.37-.22-.72-.47-1.1-.68h0C1884.24,1326.94,1884.53,1327.14,1884.85,1327.32Z"/><path class="cls-5" d="M1885.19,1327.53l-.16-.1-.18-.11Z"/><path class="cls-5" d="M1440,2108.2l-.13.48,1-1.08-.07,0Z"/><path class="cls-5" d="M1440.86,2107.62l.07,0,.06-.06Z"/><path class="cls-5" d="M1883.93,1326.76h0c.32.18.61.38.93.56C1884.53,1327.14,1884.24,1326.94,1883.93,1326.76Z"/><path class="cls-5" d="M1883.92,1326.76h0l-.16-.1-.14-.07Z"/><path class="cls-5" d="M1883.92,1326.76h0c1.6.92,3.12,1.94,4.7,2.88-1.1-.73-2.26-1.43-3.43-2.12l-.34-.21C1884.53,1327.14,1884.24,1326.94,1883.92,1326.76Z"/><path class="cls-5" d="M1883.92,1326.76l-.29-.17-.08,0,.37.22Z"/><path class="cls-5" d="M1440.09,2107.93c0,.1,0,.19-.08.27l.85-.58Z"/><path class="cls-5" d="M1883.91,1326.78h0l-.37-.22-.07,0C1883.63,1326.6,1883.76,1326.7,1883.91,1326.78Z"/><path class="cls-5" d="M1889.75,1330.46c-.38-.26-.74-.54-1.13-.81-1.58-.94-3.1-2-4.7-2.88h0C1885.93,1327.94,1887.8,1329.24,1889.75,1330.46Z"/><path class="cls-10" d="M1883.48,1326.51c-109.21-61.11-231.55,223.41-286.92,320.82-53.45,94-149.41,435.37-156.28,459.9l443.63-780.45C1883.76,1326.7,1883.63,1326.6,1883.48,1326.51Z"/><path class="cls-11" d="M1440.28,2107.23c-.07.28-.14.51-.19.7l.77-.31.13-.08c18.23-18.74,265.32-273.53,318.72-367.47,54.41-95.72,226.88-341.7,130-409.61-2-1.22-3.82-2.52-5.84-3.68Z"/><rect class="cls-12" x="1306.75" y="2076.07" width="174.48" height="221.45" transform="translate(1262.75 -403.19) rotate(29.61)"/><rect class="cls-8" x="1358.46" y="2109.49" width="120.79" height="67.11" transform="translate(1244.38 -421.2) rotate(29.61)"/></g><g class="cls-3"><path class="cls-13" d="M185.11,2644.43l.17-.11c1.72-1,3.44-2.05,5.17-3,185-109.11,441.76.76,544.34,164.11,104,165.53-28.72,673.07-28.72,673.07S197.36,3373.73,93.42,3208.21c-102.85-163.79-95.91-440.07,84-558.72.43-.31.89-.59,1.32-.89,1.48-1,2.87-2,4.37-2.95-218.24,137-296,406-173.74,600.74s704.39,244.29,704.39,244.29,208.22-545.84,85.93-740.57C677.73,2556,403,2508.94,185.11,2644.43Z"/><path class="cls-13" d="M183.32,2645.49l-.26.16.22-.13Z"/><path class="cls-5" d="M661.32,2862.75c85,135.38,37.68,563.12,34,595.25.3,1,.48,1.54.48,1.54l-.38-.37.05.58-.33-.21c0,.28-.06.45-.06.45S265.3,3307.61,176.94,3166.91C90,3028.45,27.55,2753.69,175.88,2650.62c.51-.37,1-.76,1.49-1.13C-2.49,2768.14-9.43,3044.42,93.42,3208.21c103.94,165.52,612.65,270.31,612.65,270.31S838.74,2971,734.79,2805.45c-102.58-163.35-359.32-273.22-544.34-164.11.7-.37,1.39-.7,2.09-1.06C349.9,2553.73,574.71,2724.83,661.32,2862.75Z"/><path class="cls-5" d="M182.2,2646.24c.3-.19.56-.41.86-.59-1.5.94-2.89,2-4.37,2.95C179.84,2647.8,181,2647,182.2,2646.24Z"/><path class="cls-5" d="M183.28,2645.52l-.22.13.19-.11Z"/><path class="cls-6" d="M579.77,2921.53c72.26,115.08,112.57,506.94,115.51,536.4l0,.07c3.69-32.13,51-459.87-34-595.25-86.61-137.92-311.42-309-468.78-222.47C325.81,2571.89,506.34,2804.6,579.77,2921.53Z"/><path class="cls-6" d="M175.88,2650.62C27.55,2753.69,90,3028.45,176.94,3166.91,265.3,3307.61,695.07,3460,695.07,3460s0-.17.06-.45c-11.82-7.38-356-223-429.81-340.55C191.71,3001.78,55.1,2740.22,175.88,2650.62Z"/><path class="cls-6" d="M183.25,2645.54l-.19.11c-.3.18-.56.4-.86.59C182.56,2646,182.89,2645.77,183.25,2645.54Z"/><path class="cls-13" d="M183.74,2645.23l-.22.13-.2.13.28-.17Z"/><path class="cls-13" d="M177.37,2649.49c.45-.29.88-.6,1.32-.89C178.26,2648.9,177.8,2649.18,177.37,2649.49Z"/><path class="cls-13" d="M190.45,2641.34c-1.73.93-3.45,1.95-5.17,3,1.24-.74,2.49-1.48,3.74-2.14C189.49,2641.89,190,2641.62,190.45,2641.34Z"/><path class="cls-13" d="M183.52,2645.38l.08-.06-.28.17,0,0Z"/><path class="cls-13" d="M183.52,2645.38l-.24.14,0,0,.21-.12Z"/><path class="cls-13" d="M695.13,3459.54l.33.21-.3-.48C695.15,3459.35,695.14,3459.47,695.13,3459.54Z"/><path class="cls-13" d="M182.2,2646.24c-1.19.77-2.36,1.56-3.51,2.36-.44.29-.87.6-1.32.89s-1,.76-1.49,1.13C178,2649.16,180,2647.63,182.2,2646.24Z"/><path class="cls-13" d="M190.35,2641.52c.73-.41,1.46-.84,2.19-1.24-.7.36-1.39.69-2.09,1.06-.47.28-1,.55-1.43.84C189.46,2641.94,189.91,2641.74,190.35,2641.52Z"/><path class="cls-13" d="M695.16,3459.27l.3.48-.05-.58-.22-.2Z"/><path class="cls-13" d="M510.45,2971.5c61.47,97.89,176.4,459.76,184.83,486.43-2.94-29.46-43.25-421.32-115.51-536.4-73.43-116.93-254-349.64-387.23-281.25-.73.4-1.46.83-2.19,1.24C303.38,2584.67,447.81,2871.76,510.45,2971.5Z"/><path class="cls-13" d="M694.63,3458.43l.53.84,0-.3Z"/><path class="cls-13" d="M265.32,3119c73.81,117.54,418,333.17,429.81,340.55,0-.07,0-.19,0-.27l-.53-.84C675,3439.54,402,3176.25,340.44,3078.26c-63.75-101.51-269.88-360.89-157-432.84l-.21.12c-.36.23-.69.47-1.05.7-2.19,1.39-4.21,2.92-6.32,4.38C55.1,2740.22,191.71,3001.78,265.32,3119Z"/><path class="cls-5" d="M184.91,2644.54l.2-.11c-.4.24-.81.44-1.21.69h0C184.24,2644.92,184.58,2644.75,184.91,2644.54Z"/><path class="cls-5" d="M183.9,2645.12l-.16.11.17-.1Z"/><path class="cls-5" d="M185.28,2644.32l-.17.11-.2.11Z"/><path class="cls-5" d="M695.41,3459.17l.38.37s-.18-.56-.48-1.54a.25.25,0,0,0,0,.08C695.34,3458.54,695.38,3458.91,695.41,3459.17Z"/><path class="cls-5" d="M695.3,3458.08a.25.25,0,0,1,0-.08l0-.07C695.29,3458,695.29,3458,695.3,3458.08Z"/><path class="cls-5" d="M183.91,2645.13h0c.32-.21.66-.39,1-.6C184.58,2644.75,184.24,2644.92,183.91,2645.13Z"/><path class="cls-5" d="M183.92,2645.14h0l-.17.1-.14.09Z"/><path class="cls-5" d="M183.92,2645.14l-.32.18-.08.06.4-.23Z"/><path class="cls-5" d="M183.92,2645.14h0c1.68-1.05,3.4-2,5.1-3-1.25.66-2.5,1.4-3.74,2.14l-.37.22C184.58,2644.75,184.24,2644.93,183.92,2645.14Z"/><path class="cls-5" d="M183.93,2645.16h0l-.4.23-.06,0Z"/><path class="cls-5" d="M695.19,3459l.22.2c0-.26-.07-.63-.11-1.09C695.26,3458.42,695.22,3458.72,695.19,3459Z"/><path class="cls-5" d="M190.35,2641.52c-.44.22-.89.42-1.33.66-1.7,1-3.42,1.92-5.1,3h0C186,2643.84,188.21,2642.73,190.35,2641.52Z"/><path class="cls-5" d="M694.63,3458.43l.56.54c0-.25.07-.55.11-.89,0,0,0-.1,0-.15-8.43-26.67-123.36-388.54-184.83-486.43-62.64-99.74-207.07-386.83-320.1-330-2.14,1.21-4.31,2.32-6.42,3.64Z"/><path class="cls-6" d="M183.46,2645.42c-112.9,71.95,93.23,331.33,157,432.84,61.53,98,334.55,361.28,354.19,380.17l-510.7-813.27Z"/><rect class="cls-14" x="652.83" y="3423.9" width="186.64" height="236.89" transform="translate(-1769.57 939.25) rotate(-32.13)"/><rect class="cls-8" x="652.92" y="3460.86" width="129.22" height="71.79" transform="translate(-1749.7 917.04) rotate(-32.13)"/></g><rect class="cls-15" width="2000" height="4000"/></g></g></svg>