<svg xmlns="http://www.w3.org/2000/svg" xmlns:xlink="http://www.w3.org/1999/xlink" viewBox="0 0 2000 4000" width="2000px" height="4000px"><defs><style>.cls-1{isolation:isolate;}.cls-2{fill:#eedeca;}.cls-3{opacity:0.8;mix-blend-mode:soft-light;}.cls-4{fill:#ffdfd8;}.cls-5{fill:#902621;}.cls-10,.cls-12,.cls-6{fill:none;stroke-linecap:round;stroke-miterlimit:10;}.cls-10,.cls-6{stroke:#9f0021;}.cls-6{stroke-width:14.52px;}.cls-7{fill:#9f0021;}.cls-8{fill:#3869e3;}.cls-9{fill:#bd0026;}.cls-10{stroke-width:12.63px;}.cls-11{fill:#14808e;}.cls-12{stroke:#ffd41f;stroke-width:12.16px;}.cls-13{fill:#ffd41f;}.cls-14{fill:#ffbd55;}.cls-15{opacity:0.4;fill:url(#名称未設定グラデーション_45);}</style><radialGradient id="名称未設定グラデーション_45" cx="1000" cy="2000" r="1581.14" gradientUnits="userSpaceOnUse"><stop offset="0" stop-color="#fff"/><stop offset="0.26" stop-color="#fffdfc"/><stop offset="0.46" stop-color="#fff8f2"/><stop offset="0.65" stop-color="#fff0e1"/><stop offset="0.83" stop-color="#fee4c9"/><stop offset="1" stop-color="#fed4ab"/></radialGradient></defs><g class="cls-1"><g id="レイヤー_4" data-name="レイヤー 4"><rect class="cls-2" width="2000" height="4000"/><g class="cls-3"><path class="cls-4" d="M554,1156s81.35,220.81,134,242V1131.32h-268V1398C472.6,1376.78,554,1156,554,1156Z"/><path class="cls-5" d="M420.91,1059.09H338.42c10.12,110.3-14.41,288.28-22,338.91H420.91Z"/><path class="cls-5" d="M184.23,1059.09S176.53,1358,96.42,1398H199.54c45-67.32,52.83-338.91,52.83-338.91Z"/><path class="cls-4" d="M338.42,1059.09H252.37S244.5,1330.68,199.54,1398H316.46C324,1347.37,348.54,1169.39,338.42,1059.09Z"/><path class="cls-5" d="M688,1059.09h82.49c-10.12,110.3,14.41,288.28,22,338.91H688Z"/><path class="cls-5" d="M924.66,1059.09s7.7,298.86,87.81,338.91H909.35c-45-67.32-52.83-338.91-52.83-338.91Z"/><path class="cls-4" d="M770.47,1059.09h86s7.87,271.59,52.83,338.91H792.43C784.88,1347.37,760.35,1169.39,770.47,1059.09Z"/><polygon class="cls-5" points="641.93 661.68 555.99 633.43 555.99 689.93 641.93 661.68"/><line class="cls-6" x1="554.2" y1="636.44" x2="554.2" y2="715.65"/><rect class="cls-5" x="521.85" y="710.93" width="64.7" height="33.89" rx="4.58"/><path class="cls-5" d="M398.61,934.3c29.27-38.51,55.81-90.89,55.81-90.89H430.83s-50.11,59.73-89.22,95.51c-72.4,66.25-178.7,83.19-178.7,83.19H280.37S353.48,993.68,398.61,934.3Z"/><path class="cls-5" d="M506.92,843.41H479.75c1,7.7-30.3,89.35-44.17,106.3-36.1,44.13-75,72.4-75,72.4h87.13s40.79-53,49.48-94C508,877.3,506.92,843.41,506.92,843.41Z"/><path class="cls-4" d="M435.58,949.71c26.09-39.13,45.21-98.6,44.17-106.3H454.42s-39.61,70.37-55.81,90.89c-46.21,58.54-118.24,87.81-118.24,87.81h80.22S417.1,977.44,435.58,949.71Z"/><path class="cls-4" d="M538.92,843.41h-32s-.79,55.73-9.72,84.73c-12.32,40.05-49.48,94-49.48,94H500s23.75-62.76,28-87.81C538.8,871.14,538.92,843.41,538.92,843.41Z"/><path class="cls-5" d="M709.8,934.3C680.53,895.79,654,843.41,654,843.41h23.58s50.12,59.73,89.23,95.51c72.4,66.25,178.7,83.19,178.7,83.19H828S754.93,993.68,709.8,934.3Z"/><path class="cls-5" d="M601.49,843.41h27.16c-1,7.7,30.31,89.35,44.17,106.3,36.11,44.13,75,72.4,75,72.4H660.69s-40.79-53-49.49-94C600.42,877.3,601.49,843.41,601.49,843.41Z"/><path class="cls-5" d="M580.39,934.3c-4.54-18.18-10.9-90.89-10.9-90.89H538.92S532.56,916.12,528,934.3c-6.16,24.65-28,87.81-28,87.81H608.42S586.55,959,580.39,934.3Z"/><path class="cls-4" d="M672.82,949.71c-26.08-39.13-45.2-98.6-44.17-106.3H654s39.61,70.37,55.81,90.89C756,992.84,828,1022.11,828,1022.11H747.81S691.31,977.44,672.82,949.71Z"/><path class="cls-4" d="M569.49,843.41h32s.79,55.73,9.71,84.73c12.33,40.05,49.49,94,49.49,94H608.42s-23.75-62.76-28-87.81C569.61,871.14,569.49,843.41,569.49,843.41Z"/><path class="cls-7" d="M624.51,771.51C611.58,759.67,595,739.92,595,739.92H513.4s-16.57,19.75-29.5,31.59C460,793.41,424.8,799,424.8,799h65.37s5.87-4.64,12.1-10.33A133.77,133.77,0,0,1,490.17,799H618.23a135.45,135.45,0,0,1-12.1-10.33c6.24,5.69,12.1,10.33,12.1,10.33h65.38S648.45,793.41,624.51,771.51ZM504,768.37c-.43.6-.84,1.14-1.2,1.61Zm13.77,2.24a28.81,28.81,0,0,1-2.75,4.46C515.92,773.65,516.83,772.15,517.72,770.61Zm17.63-2.67a152.61,152.61,0,0,0,2.71-17.58C537.63,756.16,536.83,763.15,535.35,767.94Zm11.57-6.61c-.46,3.7-.95,6.92-1.38,8.65C546.08,766.82,546.53,764,546.92,761.33ZM605.66,770c-.37-.47-.77-1-1.2-1.61Zm-44.18-8.65c.39,2.63.84,5.49,1.38,8.65C562.43,768.25,562,765,561.48,761.33Zm8.86-11a157.15,157.15,0,0,0,2.71,17.58C571.58,763.15,570.78,756.16,570.34,750.36Zm20.35,20.25c.88,1.54,1.8,3,2.74,4.46A29.7,29.7,0,0,1,590.69,770.61Z"/><rect class="cls-5" x="420.18" y="797.2" width="268.05" height="46.22" rx="6.01"/><circle class="cls-7" cx="554.2" cy="616.49" r="18.49"/><path class="cls-7" d="M266.37,1022.11a58.54,58.54,0,1,1-117.08,0"/><path class="cls-7" d="M358.8,1022.11a58.54,58.54,0,1,1-117.08,0"/><path class="cls-7" d="M451.23,1022.11a58.54,58.54,0,1,1-117.08,0"/><path class="cls-7" d="M556,1022.11a58.54,58.54,0,0,1-117.08,0"/><path class="cls-7" d="M842.52,1022.11a58.54,58.54,0,0,0,117.08,0"/><path class="cls-7" d="M750.09,1022.11a58.54,58.54,0,1,0,117.08,0"/><path class="cls-7" d="M657.66,1022.11a58.54,58.54,0,1,0,117.08,0"/><path class="cls-7" d="M552.91,1022.11a58.54,58.54,0,1,0,117.08,0"/><circle class="cls-8" cx="253.8" cy="995.92" r="10.78"/><circle class="cls-8" cx="275.37" cy="995.92" r="10.78"/><circle class="cls-8" cx="296.94" cy="995.92" r="10.78"/><circle class="cls-8" cx="318.5" cy="995.92" r="10.78"/><circle class="cls-8" cx="340.07" cy="995.92" r="10.78"/><circle class="cls-8" cx="361.64" cy="995.92" r="10.78"/><circle class="cls-8" cx="383.2" cy="995.92" r="10.78"/><circle class="cls-8" cx="404.77" cy="995.92" r="10.78"/><circle class="cls-8" cx="426.34" cy="995.92" r="10.78"/><circle class="cls-8" cx="447.91" cy="995.92" r="10.78"/><circle class="cls-8" cx="469.47" cy="995.92" r="10.78"/><circle class="cls-8" cx="491.04" cy="995.92" r="10.78"/><circle class="cls-8" cx="512.61" cy="995.92" r="10.78"/><circle class="cls-8" cx="534.18" cy="995.92" r="10.78"/><circle class="cls-8" cx="555.74" cy="995.92" r="10.78"/><circle class="cls-8" cx="577.31" cy="995.92" r="10.78"/><circle class="cls-8" cx="598.88" cy="995.92" r="10.78"/><circle class="cls-8" cx="620.44" cy="995.92" r="10.78"/><circle class="cls-8" cx="642.01" cy="995.92" r="10.78"/><circle class="cls-8" cx="663.58" cy="995.92" r="10.78"/><circle class="cls-8" cx="685.15" cy="995.92" r="10.78"/><circle class="cls-8" cx="706.71" cy="995.92" r="10.78"/><circle class="cls-8" cx="728.28" cy="995.92" r="10.78"/><circle class="cls-8" cx="749.85" cy="995.92" r="10.78"/><circle class="cls-8" cx="771.42" cy="995.92" r="10.78"/><circle class="cls-8" cx="792.98" cy="995.92" r="10.78"/><circle class="cls-8" cx="814.55" cy="995.92" r="10.78"/><circle class="cls-8" cx="836.12" cy="995.92" r="10.78"/><circle class="cls-8" cx="857.69" cy="995.92" r="10.78"/><path class="cls-9" d="M385,1136.11a169.46,169.46,0,1,1,338.91,0"/><path class="cls-5" d="M554.45,995.18a56.21,56.21,0,0,0-56.21,56.2h56.21Z"/><path class="cls-4" d="M610.65,1051.38a56.2,56.2,0,0,0-56.2-56.2v56.2Z"/><path class="cls-5" d="M554.45,1051.38v56.21a56.21,56.21,0,0,0,56.2-56.21Z"/><path class="cls-4" d="M498.24,1051.38a56.22,56.22,0,0,0,56.21,56.21v-56.21Z"/></g><g class="cls-3"><path class="cls-4" d="M526,3121.33s70.77,192.07,116.58,210.52v-232H409.39v232C455.21,3313.4,526,3121.33,526,3121.33Z"/><path class="cls-5" d="M410.25,3037.06H338.49c8.81,96-12.53,250.75-19.09,294.79h90.85Z"/><path class="cls-5" d="M204.38,3037.06s-6.7,260-76.38,294.79h89.69c39.11-58.55,46-294.79,46-294.79Z"/><path class="cls-4" d="M338.49,3037.06H263.65s-6.85,236.24-46,294.79H319.4C326,3287.81,347.3,3133,338.49,3037.06Z"/><path class="cls-5" d="M642.55,3037.06H714.3c-8.8,96,12.54,250.75,19.1,294.79H642.55Z"/><path class="cls-5" d="M848.42,3037.06s6.7,260,76.38,294.79H835.1c-39.1-58.55-46-294.79-46-294.79Z"/><path class="cls-4" d="M714.3,3037.06h74.85s6.85,236.24,46,294.79H733.4C726.84,3287.81,705.5,3133,714.3,3037.06Z"/><polygon class="cls-5" points="602.49 2691.39 527.74 2666.82 527.74 2715.96 602.49 2691.39"/><line class="cls-10" x1="526.19" y1="2669.44" x2="526.19" y2="2738.33"/><rect class="cls-5" x="498.05" y="2734.23" width="56.28" height="29.48" rx="3.98"/><path class="cls-5" d="M390.85,2928.52c25.46-33.5,48.54-79.06,48.54-79.06H418.88s-43.59,52-77.61,83.08c-63,57.62-155.44,72.36-155.44,72.36H288S351.59,2980.17,390.85,2928.52Z"/><path class="cls-5" d="M485.06,2849.46H461.43c.9,6.7-26.36,77.72-38.42,92.46a395.51,395.51,0,0,1-65.23,63h75.79s35.47-46.08,43-81.74C486,2878.94,485.06,2849.46,485.06,2849.46Z"/><path class="cls-4" d="M423,2941.92c22.69-34,39.32-85.76,38.42-92.46h-22s-34.45,61.21-48.54,79.06C350.65,2979.44,288,3004.9,288,3004.9h69.78S406.93,2966,423,2941.92Z"/><path class="cls-4" d="M512.89,2849.46H485.06s-.69,48.48-8.45,73.7c-10.72,34.84-43,81.74-43,81.74H479s20.66-54.59,24.38-76.38C512.79,2873.58,512.89,2849.46,512.89,2849.46Z"/><path class="cls-5" d="M661.52,2928.52C636.06,2895,613,2849.46,613,2849.46H633.5s43.58,52,77.6,83.08c63,57.62,155.44,72.36,155.44,72.36H764.37S700.78,2980.17,661.52,2928.52Z"/><path class="cls-5" d="M567.31,2849.46h23.63c-.9,6.7,26.36,77.72,38.42,92.46a395.51,395.51,0,0,0,65.23,63H618.81s-35.48-46.08-43-81.74C566.39,2878.94,567.31,2849.46,567.31,2849.46Z"/><path class="cls-5" d="M549,2928.52c-4-15.81-9.49-79.06-9.49-79.06H512.89s-5.53,63.25-9.48,79.06C498.05,2950,479,3004.9,479,3004.9h94.31S554.33,2950,549,2928.52Z"/><path class="cls-4" d="M629.36,2941.92c-22.69-34-39.32-85.76-38.42-92.46h22s34.45,61.21,48.54,79.06c40.2,50.92,102.85,76.38,102.85,76.38H694.59S645.44,2966,629.36,2941.92Z"/><path class="cls-4" d="M539.48,2849.46h27.83s.69,48.48,8.45,73.7c10.72,34.84,43,81.74,43,81.74H573.34s-20.66-54.59-24.37-76.38C539.59,2873.58,539.48,2849.46,539.48,2849.46Z"/><path class="cls-7" d="M587.34,2786.92c-11.25-10.29-25.67-27.48-25.67-27.48h-71s-14.42,17.19-25.67,27.48c-20.83,19-51.4,23.93-51.4,23.93h56.86s5.1-4,10.53-9a117.25,117.25,0,0,1-10.53,9H581.88a118.13,118.13,0,0,1-10.52-9c5.42,4.95,10.52,9,10.52,9h56.86S608.17,2806,587.34,2786.92Zm-104.87-2.73c-.37.52-.72,1-1,1.4C481.78,2785.13,482.12,2784.66,482.47,2784.19Zm12,1.95a24.51,24.51,0,0,1-2.39,3.88C492.89,2788.79,493.68,2787.48,494.45,2786.14Zm15.34-2.32a136,136,0,0,0,2.36-15.3C511.77,2773.57,511.07,2779.65,509.79,2783.82Zm10.06-5.75a74.81,74.81,0,0,1-1.2,7.52C519.12,2782.84,519.51,2780.36,519.85,2778.07Zm51.09,7.52c-.31-.4-.67-.88-1-1.4C570.25,2784.66,570.59,2785.13,570.94,2785.59Zm-38.42-7.52c.34,2.28.73,4.77,1.2,7.52C533.34,2784.09,532.93,2781.29,532.52,2778.07Zm7.7-9.55a136,136,0,0,0,2.36,15.3C541.3,2779.65,540.6,2773.57,540.22,2768.52Zm17.7,17.62c.77,1.34,1.57,2.65,2.39,3.88A24.51,24.51,0,0,1,557.92,2786.14Z"/><rect class="cls-5" x="409.61" y="2809.26" width="233.16" height="40.2" rx="5.22"/><circle class="cls-7" cx="526.19" cy="2652.08" r="16.08"/><path class="cls-7" d="M275.82,3004.9a50.92,50.92,0,0,1-101.84,0"/><path class="cls-7" d="M356.22,3004.9a50.92,50.92,0,0,1-101.84,0"/><path class="cls-7" d="M436.62,3004.9a50.92,50.92,0,1,1-101.84,0"/><path class="cls-7" d="M527.74,3004.9a50.92,50.92,0,1,1-101.84,0"/><path class="cls-7" d="M777,3004.9a50.92,50.92,0,0,0,101.84,0"/><path class="cls-7" d="M696.57,3004.9a50.92,50.92,0,0,0,101.84,0"/><path class="cls-7" d="M616.18,3004.9a50.92,50.92,0,1,0,101.83,0"/><path class="cls-7" d="M525.06,3004.9a50.92,50.92,0,1,0,101.84,0"/><circle class="cls-8" cx="264.89" cy="2982.12" r="9.38"/><circle class="cls-8" cx="283.65" cy="2982.12" r="9.38"/><circle class="cls-8" cx="302.41" cy="2982.12" r="9.38"/><circle class="cls-8" cx="321.17" cy="2982.12" r="9.38"/><circle class="cls-8" cx="339.93" cy="2982.12" r="9.38"/><circle class="cls-8" cx="358.69" cy="2982.12" r="9.38"/><circle class="cls-8" cx="377.45" cy="2982.12" r="9.38"/><circle class="cls-8" cx="396.21" cy="2982.12" r="9.38"/><circle class="cls-8" cx="414.97" cy="2982.12" r="9.38"/><circle class="cls-8" cx="433.73" cy="2982.12" r="9.38"/><circle class="cls-8" cx="452.49" cy="2982.12" r="9.38"/><circle class="cls-8" cx="471.25" cy="2982.12" r="9.38"/><circle class="cls-8" cx="490.01" cy="2982.12" r="9.38"/><circle class="cls-8" cx="508.77" cy="2982.12" r="9.38"/><circle class="cls-8" cx="527.52" cy="2982.12" r="9.38"/><circle class="cls-8" cx="546.28" cy="2982.12" r="9.38"/><circle class="cls-8" cx="565.04" cy="2982.12" r="9.38"/><circle class="cls-8" cx="583.8" cy="2982.12" r="9.38"/><circle class="cls-8" cx="602.56" cy="2982.12" r="9.38"/><circle class="cls-8" cx="621.32" cy="2982.12" r="9.38"/><circle class="cls-8" cx="640.08" cy="2982.12" r="9.38"/><circle class="cls-8" cx="658.84" cy="2982.12" r="9.38"/><circle class="cls-8" cx="677.6" cy="2982.12" r="9.38"/><circle class="cls-8" cx="696.36" cy="2982.12" r="9.38"/><circle class="cls-8" cx="715.12" cy="2982.12" r="9.38"/><circle class="cls-8" cx="733.88" cy="2982.12" r="9.38"/><circle class="cls-8" cx="752.64" cy="2982.12" r="9.38"/><circle class="cls-8" cx="771.4" cy="2982.12" r="9.38"/><circle class="cls-8" cx="790.16" cy="2982.12" r="9.38"/><path class="cls-9" d="M379,3104.06a147.4,147.4,0,1,1,294.79,0"/><path class="cls-5" d="M526.4,2981.47a48.89,48.89,0,0,0-48.89,48.89H526.4Z"/><path class="cls-4" d="M575.28,3030.36a48.88,48.88,0,0,0-48.88-48.89v48.89Z"/><path class="cls-5" d="M526.4,3030.36v48.89a48.88,48.88,0,0,0,48.88-48.89Z"/><path class="cls-4" d="M477.51,3030.36a48.89,48.89,0,0,0,48.89,48.89v-48.89Z"/></g><g class="cls-3"><path class="cls-4" d="M1660.25,1948.79s68.15,185,112.26,202.73V1928.14H1548v223.38C1592.1,2133.75,1660.25,1948.79,1660.25,1948.79Z"/><path class="cls-11" d="M1548.8,1867.64h-69.09c8.48,92.4-12.08,241.47-18.39,283.88h87.48Z"/><path class="cls-11" d="M1350.55,1867.64S1344.1,2118,1277,2151.52h86.38c37.65-56.38,44.25-283.88,44.25-283.88Z"/><path class="cls-4" d="M1479.71,1867.64h-72.08s-6.6,227.5-44.25,283.88h97.94C1467.63,2109.11,1488.19,1960,1479.71,1867.64Z"/><path class="cls-11" d="M1772.51,1867.64h69.1c-8.48,92.4,12.07,241.47,18.39,283.88h-87.49Z"/><path class="cls-11" d="M1970.77,1867.64s6.45,250.33,73.55,283.88h-86.38c-37.66-56.38-44.25-283.88-44.25-283.88Z"/><path class="cls-4" d="M1841.61,1867.64h72.08s6.59,227.5,44.25,283.88H1860C1853.68,2109.11,1833.13,1960,1841.61,1867.64Z"/><polygon class="cls-11" points="1733.94 1534.75 1661.95 1511.09 1661.95 1558.42 1733.94 1534.75"/><line class="cls-12" x1="1660.46" y1="1513.61" x2="1660.46" y2="1579.96"/><rect class="cls-11" x="1633.36" y="1576" width="54.2" height="28.39" rx="3.83"/><path class="cls-11" d="M1530.12,1763.11c24.52-32.26,46.75-76.13,46.75-76.13h-19.76s-42,50-74.73,80c-60.65,55.49-149.69,69.69-149.69,69.69h98.39S1492.32,1812.85,1530.12,1763.11Z"/><path class="cls-11" d="M1620.85,1687h-22.76c.87,6.45-25.38,74.84-37,89a381.13,381.13,0,0,1-62.81,60.65h73s34.17-44.38,41.45-78.72C1621.74,1715.37,1620.85,1687,1620.85,1687Z"/><path class="cls-4" d="M1561.09,1776c21.86-32.78,37.87-82.59,37-89h-21.22s-33.18,58.94-46.75,76.13c-38.71,49-99,73.56-99,73.56h67.2S1545.61,1799.24,1561.09,1776Z"/><path class="cls-4" d="M1647.65,1687h-26.8s-.66,46.68-8.14,71c-10.32,33.55-41.45,78.72-41.45,78.72H1615s19.9-52.58,23.48-73.56C1647.55,1710.21,1647.65,1687,1647.65,1687Z"/><path class="cls-11" d="M1790.79,1763.11C1766.27,1730.85,1744,1687,1744,1687h19.76s42,50,74.73,80c60.65,55.49,149.69,69.69,149.69,69.69h-98.39S1828.59,1812.85,1790.79,1763.11Z"/><path class="cls-11" d="M1700.06,1687h22.76c-.87,6.45,25.38,74.84,37,89a381.13,381.13,0,0,0,62.81,60.65h-73s-34.17-44.38-41.45-78.72C1699.17,1715.37,1700.06,1687,1700.06,1687Z"/><path class="cls-11" d="M1682.39,1763.11c-3.81-15.23-9.13-76.13-9.13-76.13h-25.61s-5.32,60.9-9.13,76.13c-5.16,20.65-23.48,73.56-23.48,73.56h90.83S1687.55,1783.76,1682.39,1763.11Z"/><path class="cls-4" d="M1759.82,1776c-21.86-32.78-37.87-82.59-37-89H1744s33.18,58.94,46.75,76.13c38.71,49,99,73.56,99,73.56h-67.2S1775.3,1799.24,1759.82,1776Z"/><path class="cls-4" d="M1673.26,1687h26.8s.66,46.68,8.14,71c10.32,33.55,41.45,78.72,41.45,78.72h-43.78s-19.9-52.58-23.48-73.56C1673.36,1710.21,1673.26,1687,1673.26,1687Z"/><path class="cls-13" d="M1719.35,1626.75c-10.84-9.92-24.72-26.46-24.72-26.46h-68.35s-13.88,16.54-24.72,26.46c-20,18.35-49.5,23-49.5,23h54.76s4.92-3.88,10.14-8.65a112.14,112.14,0,0,1-10.14,8.65h107.27a112.14,112.14,0,0,1-10.14-8.65c5.23,4.77,10.14,8.65,10.14,8.65h54.76S1739.4,1645.1,1719.35,1626.75Zm-101-2.63c-.36.5-.7,1-1,1.35Zm11.53,1.88a24.87,24.87,0,0,1-2.29,3.73C1628.39,1628.55,1629.15,1627.29,1629.89,1626Zm14.78-2.24a132.22,132.22,0,0,0,2.27-14.73C1646.57,1613.89,1645.9,1619.75,1644.67,1623.76Zm9.69-5.54c-.4,3.11-.8,5.8-1.16,7.25C1653.65,1622.82,1654,1620.43,1654.36,1618.22Zm49.2,7.25c-.31-.39-.65-.85-1-1.35Zm-37-7.25c.33,2.21.71,4.6,1.16,7.25C1667.35,1624,1667,1621.33,1666.55,1618.22ZM1674,1609a132.22,132.22,0,0,0,2.27,14.73C1675,1619.75,1674.34,1613.89,1674,1609Zm17,17c.74,1.29,1.5,2.55,2.29,3.73A24.87,24.87,0,0,1,1691,1626Z"/><rect class="cls-11" x="1548.19" y="1648.27" width="224.53" height="38.71" rx="5.03"/><circle class="cls-13" cx="1660.46" cy="1496.9" r="15.48"/><path class="cls-13" d="M1419.35,1836.67a49,49,0,0,1-98.07,0"/><path class="cls-13" d="M1496.78,1836.67a49,49,0,0,1-98.07,0"/><path class="cls-13" d="M1574.2,1836.67a49,49,0,0,1-98.07,0"/><path class="cls-13" d="M1662,1836.67a49,49,0,0,1-98.07,0"/><path class="cls-13" d="M1902,1836.67a49,49,0,0,0,98.07,0"/><path class="cls-13" d="M1824.54,1836.67a49,49,0,0,0,98.07,0"/><path class="cls-13" d="M1747.12,1836.67a49,49,0,0,0,98.07,0"/><path class="cls-13" d="M1659.37,1836.67a49,49,0,0,0,98.07,0"/><circle class="cls-13" cx="1408.83" cy="1814.73" r="9.03"/><circle class="cls-13" cx="1426.89" cy="1814.73" r="9.03"/><circle class="cls-13" cx="1444.96" cy="1814.73" r="9.03"/><circle class="cls-13" cx="1463.02" cy="1814.73" r="9.03"/><circle class="cls-13" cx="1481.09" cy="1814.73" r="9.03"/><circle class="cls-13" cx="1499.15" cy="1814.73" r="9.03"/><circle class="cls-13" cx="1517.22" cy="1814.73" r="9.03"/><circle class="cls-13" cx="1535.29" cy="1814.73" r="9.03"/><circle class="cls-13" cx="1553.35" cy="1814.73" r="9.03"/><circle class="cls-13" cx="1571.42" cy="1814.73" r="9.03"/><circle class="cls-13" cx="1589.48" cy="1814.73" r="9.03"/><circle class="cls-13" cx="1607.55" cy="1814.73" r="9.03"/><circle class="cls-13" cx="1625.61" cy="1814.73" r="9.03"/><circle class="cls-13" cx="1643.68" cy="1814.73" r="9.03"/><circle class="cls-13" cx="1661.74" cy="1814.73" r="9.03"/><circle class="cls-13" cx="1679.81" cy="1814.73" r="9.03"/><circle class="cls-13" cx="1697.88" cy="1814.73" r="9.03"/><circle class="cls-13" cx="1715.94" cy="1814.73" r="9.03"/><circle class="cls-13" cx="1734.01" cy="1814.73" r="9.03"/><circle class="cls-13" cx="1752.07" cy="1814.73" r="9.03"/><circle class="cls-13" cx="1770.14" cy="1814.73" r="9.03"/><circle class="cls-13" cx="1788.2" cy="1814.73" r="9.03"/><circle class="cls-13" cx="1806.27" cy="1814.73" r="9.03"/><circle class="cls-13" cx="1824.34" cy="1814.73" r="9.03"/><circle class="cls-13" cx="1842.4" cy="1814.73" r="9.03"/><circle class="cls-13" cx="1860.47" cy="1814.73" r="9.03"/><circle class="cls-13" cx="1878.53" cy="1814.73" r="9.03"/><circle class="cls-13" cx="1896.6" cy="1814.73" r="9.03"/><circle class="cls-13" cx="1914.66" cy="1814.73" r="9.03"/><path class="cls-14" d="M1518.71,1932.16a141.95,141.95,0,1,1,283.89,0"/><path class="cls-11" d="M1660.66,1814.11a47.07,47.07,0,0,0-47.08,47.07h47.08Z"/><path class="cls-4" d="M1707.74,1861.18a47.07,47.07,0,0,0-47.08-47.07v47.07Z"/><path class="cls-11" d="M1660.66,1861.18v47.08a47.08,47.08,0,0,0,47.08-47.08Z"/><path class="cls-4" d="M1613.58,1861.18a47.08,47.08,0,0,0,47.08,47.08v-47.08Z"/></g><rect class="cls-15" width="2000" height="4000"/></g></g></svg>