<svg xmlns="http://www.w3.org/2000/svg" xmlns:xlink="http://www.w3.org/1999/xlink" viewBox="0 0 2000 4000" width="2000px" height="4000px"><defs><style>.cls-1{isolation:isolate;}.cls-2{fill:#eedeca;}.cls-3{opacity:0.8;mix-blend-mode:soft-light;}.cls-4{fill:#00dde5;}.cls-5{fill:#ff8d64;}.cls-6{fill:#00bf8e;}.cls-7{fill:#ffec6c;}.cls-8{fill:#ff81a2;}.cls-9{fill:#4183ff;}.cls-10{fill:#d20058;}.cls-11{fill:#ff8d3e;}.cls-12{opacity:0.4;fill:url(#名称未設定グラデーション_45);}</style><radialGradient id="名称未設定グラデーション_45" cx="1000" cy="2000" r="1581.14" gradientUnits="userSpaceOnUse"><stop offset="0" stop-color="#fff"/><stop offset="0.26" stop-color="#fffdfc"/><stop offset="0.46" stop-color="#fff8f2"/><stop offset="0.65" stop-color="#fff0e1"/><stop offset="0.83" stop-color="#fee4c9"/><stop offset="1" stop-color="#fed4ab"/></radialGradient></defs><g class="cls-1"><g id="レイヤー_3" data-name="レイヤー 3"><rect class="cls-2" width="2000" height="4000"/><g class="cls-3"><path class="cls-4" d="M355.73,236.24c-193.17,81.34-283.82,303.87-202.49,497L503,586Z"/><path class="cls-5" d="M852.76,438.73c-81.34-193.17-303.87-283.82-497-202.49L503,586Z"/><path class="cls-4" d="M503,586,650.27,935.76c193.17-81.34,283.82-303.87,202.49-497Z"/><path class="cls-5" d="M153.24,733.27c81.34,193.17,303.87,283.82,497,202.49L503,586Z"/></g><g class="cls-3"><path class="cls-6" d="M1532,1285.12c-119.23,39.19-184.11,167.61-144.92,286.84L1603,1501Z"/><path class="cls-7" d="M1818.88,1430c-39.19-119.23-167.61-184.11-286.84-144.92L1603,1501Z"/><path class="cls-6" d="M1603,1501l71,215.88c119.23-39.19,184.11-167.61,144.92-286.84Z"/><path class="cls-7" d="M1387.12,1572c39.19,119.23,167.61,184.11,286.84,144.92L1603,1501Z"/></g><g class="cls-3"><path class="cls-8" d="M456.92,2377c-103.82-28.12-210.77,33.24-238.89,137L406,2565Z"/><path class="cls-9" d="M594,2615.92c28.12-103.82-33.24-210.77-137-238.89L406,2565Z"/><path class="cls-8" d="M406,2565l-50.92,188c103.82,28.12,210.77-33.24,238.89-137Z"/><path class="cls-9" d="M218,2514.08c-28.12,103.82,33.24,210.77,137,238.89L406,2565Z"/></g><g class="cls-3"><path class="cls-10" d="M1603.3,3289.12c-215.32,39-358.23,245.25-319.18,460.58L1674,3679Z"/><path class="cls-11" d="M2063.88,3608.3c-39-215.32-245.25-358.23-460.58-319.18L1674,3679Z"/><path class="cls-10" d="M1674,3679l70.7,389.88c215.32-39,358.23-245.25,319.18-460.58Z"/><path class="cls-11" d="M1284.12,3749.7c39,215.32,245.25,358.23,460.58,319.18L1674,3679Z"/></g><rect class="cls-12" width="2000" height="4000"/></g></g></svg>