<svg xmlns="http://www.w3.org/2000/svg" viewBox="0 0 483.26 512"><defs><style>.cls-1{fill:#fff;}</style></defs><g id="レイヤー_2" data-name="レイヤー 2"><g id="_2" data-name="2"><path class="cls-1" d="M477.24,95.73A26.67,26.67,0,0,0,456.61,86H109.28L97.46,45.34v0A51.92,51.92,0,0,0,58.56,9.4L16.11.3a13.32,13.32,0,0,0-5.59,26L53,35.44a25.33,25.33,0,0,1,18.95,17.5l77.59,266.55c-1.74.82-3.44,1.71-5.07,2.68a53.77,53.77,0,0,0-19.58,20.14A55.51,55.51,0,0,0,118.09,368h0v1.39h0a55.13,55.13,0,0,0,55.13,53.78H422.79a13.32,13.32,0,0,0,0-26.63H173.22a28.14,28.14,0,0,1-11.1-2.24,28.59,28.59,0,0,1-12.57-10.36,27.08,27.08,0,0,1,1.24-32.55,27.58,27.58,0,0,1,7.34-6.31,33.87,33.87,0,0,1,10.32-4L419.3,300.23A40,40,0,0,0,452,268.76l30.68-150.85v0a27.07,27.07,0,0,0,.53-5.3A26.65,26.65,0,0,0,477.24,95.73Zm-51.3,167.71A13.3,13.3,0,0,1,415,273.94L175.36,313,117,112.59H456.62Z"/><path class="cls-1" d="M204,444.79A36.65,36.65,0,1,0,217.34,461,36.66,36.66,0,0,0,204,444.79ZM197.14,481a15,15,0,0,1-5.38,6.52,14.84,14.84,0,0,1-14,1.37,15,15,0,0,1-6.53-5.38,14.87,14.87,0,0,1-1.36-14,14.92,14.92,0,0,1,5.38-6.53,14.79,14.79,0,0,1,14-1.36,14.89,14.89,0,0,1,6.52,5.38,14.84,14.84,0,0,1,1.37,14Z"/><path class="cls-1" d="M405.57,444.79A36.65,36.65,0,1,0,418.87,461,36.66,36.66,0,0,0,405.57,444.79ZM398.66,481a14.83,14.83,0,0,1-19.41,7.89,15,15,0,0,1-6.53-5.38,14.87,14.87,0,0,1-1.36-14,14.86,14.86,0,0,1,5.38-6.53,14.7,14.7,0,0,1,8.27-2.53A14.8,14.8,0,0,1,397.3,467a14.79,14.79,0,0,1,1.36,14Z"/></g></g></svg>