<svg xmlns="http://www.w3.org/2000/svg" viewBox="0 0 100 40"><defs><style>.cls-1{fill:#a00021;}.cls-2{fill:#aa1c2a;}.cls-3{fill:#ea3300;}.cls-4{fill:#ffa031;}.cls-5{fill:#9b4426;}.cls-6{fill:#932144;}.cls-7{fill:#cf0026;}.cls-8{fill:#bc0021;}.cls-9{fill:#930329;}</style></defs><g id="レイヤー_2" data-name="レイヤー 2"><g id="レイヤー_2-2" data-name="レイヤー 2"><polygon class="cls-1" points="50 20 25 20 25 40 50 20"/><polygon class="cls-2" points="25 40 50 40 50 20 25 40"/><polygon class="cls-3" points="50 0 25 0 25 20 50 0"/><polygon class="cls-4" points="25 20 50 20 50 0 25 20"/><polygon class="cls-5" points="25 0 50 0 50 20 25 0"/><polygon class="cls-6" points="50 20 25 20 25 0 50 20"/><polygon class="cls-7" points="0 20 25 20 25 40 0 20"/><polygon class="cls-8" points="25 40 0 40 0 20 25 40"/><polygon class="cls-3" points="0 0 25 0 25 20 0 0"/><polygon class="cls-4" points="25 20 0 20 0 0 25 20"/><polygon class="cls-9" points="25 0 0 0 0 20 25 0"/><polygon class="cls-2" points="0 20 25 20 25 0 0 20"/><polygon class="cls-1" points="100 20 75 20 75 40 100 20"/><polygon class="cls-7" points="75 40 100 40 100 20 75 40"/><polygon class="cls-3" points="100 0 75 0 75 20 100 0"/><polygon class="cls-4" points="75 20 100 20 100 0 75 20"/><polygon class="cls-1" points="75 0 100 0 100 20 75 0"/><polygon class="cls-9" points="100 20 75 20 75 0 100 20"/><polygon class="cls-2" points="50 20 75 20 75 40 50 20"/><polygon class="cls-9" points="75 40 50 40 50 20 75 40"/><polygon class="cls-3" points="50 0 75 0 75 20 50 0"/><polygon class="cls-4" points="75 20 50 20 50 0 75 20"/><polygon class="cls-6" points="75 0 50 0 50 20 75 0"/><polygon class="cls-5" points="50 20 75 20 75 0 50 20"/></g></g></svg>