<?xml version="1.0" encoding="utf-8"?>
<!-- Generator: Adobe Illustrator 24.3.0, SVG Export Plug-In . SVG Version: 6.00 Build 0)  -->
<svg version="1.1" id="_x31_" xmlns="http://www.w3.org/2000/svg" xmlns:xlink="http://www.w3.org/1999/xlink" x="0px" y="0px"
	 viewBox="0 0 512 512" style="enable-background:new 0 0 512 512;" xml:space="preserve">
<style type="text/css">
	.st0{fill:#FFF8C2;}
	.st1{opacity:0.15;fill:#040000;enable-background:new    ;}
	.st2{fill:none;}
	.st3{opacity:7.000000e-02;fill:#040000;enable-background:new    ;}
	.st4{fill:#FFFFFF;}
	.st5{opacity:0.1;fill:#0F0F0F;enable-background:new    ;}
	.st6{fill:url(#SVGID_1_);}
	.st7{fill:#B02441;}
	.st8{fill:#CE3659;}
	.st9{fill:url(#SVGID_2_);}
	.st10{opacity:7.000000e-02;fill:#0F0F0F;enable-background:new    ;}
	.st11{fill:url(#SVGID_3_);}
	.st12{opacity:3.000000e-02;fill:#0F0F0F;enable-background:new    ;}
</style>
<rect class="st0" width="512" height="512"/>
<path class="st1" d="M336.3,107l-10.5-10.5c-4.7-1.2-9.8,0.7-13.9,5.9l-46.4,57.7c-0.5,0.6-0.8,1.1-1.2,1.6
	c-2.1-0.4-4.5-0.6-6.8-0.7l-52.7-52.7l-4.8-5.9c-7.4-9.2-17.9-8.1-23.3,2.4l-23.9,46.6c-0.8,1.5-1.3,3-1.6,4.5l-0.1-0.1
	c-0.1,0.4-0.2,0.7-0.2,1c-0.1,0.3-0.2,0.6-0.2,0.8c-0.4,2.8,0.1,5.4,1.3,7.5c0.4,0.7,0.9,1.3,1.4,1.9c1.2,1.3,2.7,2.4,4.6,3.2
	l5.7,5.7h-37.6c-10.2,0-18.5,8.3-18.5,18.5v45.7c0,9.4,7.1,17.2,16.2,18.3v141.1L236.4,512H512V282.7L336.3,107z"/>
<path class="st2" d="M285.6,175.9h0.5v0.2h49.8l3.9-3.9l-54.6,2.9C285.4,175.3,285.5,175.6,285.6,175.9z"/>
<path class="st3" d="M347.4,171.7h0.1c1.3-0.1,2.6-0.3,3.7-0.6c0.4-0.1,0.7-0.2,1.1-0.4c0.8-0.2,1.5-0.5,2.2-0.8
	c0.4-0.2,0.7-0.4,1.1-0.6c0.6-0.4,1.1-0.7,1.6-1.2c0.3-0.3,0.6-0.5,0.9-0.8c0.4-0.5,0.8-1,1.2-1.5c0.2-0.3,0.4-0.6,0.6-0.9
	c0.3-0.6,0.6-1.3,0.8-1.9c0.1-0.3,0.2-0.6,0.3-0.9c0.2-1,0.3-2,0.3-3.1c0-0.1,0-0.3-0.1-0.4c-0.1-0.9-0.1-1.8-0.4-2.7c0,0,0,0,0,0.1
	c-0.3-1.2-0.7-2.3-1.2-3.6l-19.7,19.7L347.4,171.7z"/>
<g>
	<g>
		<path class="st4" d="M387.9,220.3v183.6c0,6.6-5.4,12-12,12H136.1c-6.7,0-12-5.4-12-12V220.3c0-6.6,5.4-12,12-12h239.7
			C382.5,208.2,387.9,213.7,387.9,220.3z"/>
		<path class="st5" d="M387.9,220.3V282H124.1v-61.7c0-6.6,5.4-12,12-12h239.7C382.5,208.2,387.9,213.7,387.9,220.3z"/>
		<path class="st4" d="M404.1,194.6v45.7c0,1.7-0.3,3.4-0.7,5.1c-2,7-8.1,12.3-15.5,13.3c-0.7,0.1-1.5,0.2-2.3,0.2H126.4
			c-0.8,0-1.5-0.1-2.3-0.2c-9.1-1.1-16.2-9-16.2-18.3v-45.7c0-10.1,8.3-18.5,18.5-18.5h259.3C395.8,176.1,404.1,184.4,404.1,194.6z"
			/>
		
			<linearGradient id="SVGID_1_" gradientUnits="userSpaceOnUse" x1="225.5" y1="746.6" x2="286.427" y2="746.6" gradientTransform="matrix(1 0 0 1 0 -566)">
			<stop  offset="3.380000e-02" style="stop-color:#AD1C41"/>
			<stop  offset="0.9903" style="stop-color:#AB1F24"/>
		</linearGradient>
		<path class="st6" d="M286.5,180.6c0,1.1-0.1,2.1-0.4,3.1c-2.3,9.4-14.8,16.6-30.1,16.6c-15.2,0-27.8-7.2-30.1-16.6
			c-0.3-1-0.4-2-0.4-3.1s0.1-2.1,0.4-3.1c0.1-0.5,0.2-1,0.4-1.4c0-0.1,0.1-0.2,0.1-0.2c0.1-0.3,0.2-0.5,0.3-0.8c1.3-3,3.7-5.7,7-7.9
			c3.7-2.6,8.5-4.6,13.9-5.5c2.6-0.5,5.4-0.8,8.3-0.8c2.9,0,5.7,0.3,8.3,0.8c5.4,1,10.2,2.9,13.9,5.5c3.2,2.2,5.6,4.9,7,7.9
			c0.2,0.3,0.3,0.5,0.3,0.8c0.1,0.1,0.1,0.1,0.1,0.2c0.2,0.5,0.3,0.9,0.4,1.4C286.4,178.5,286.5,179.5,286.5,180.6z"/>
		<rect x="225.9" y="258" class="st7" width="60.1" height="157.8"/>
		<rect x="225.9" y="175.9" class="st8" width="60.1" height="82.9"/>
		<g>
			<g>
				
					<linearGradient id="SVGID_2_" gradientUnits="userSpaceOnUse" x1="150.7644" y1="702.0922" x2="250.3" y2="702.0922" gradientTransform="matrix(1 0 0 1 0 -566)">
					<stop  offset="3.380000e-02" style="stop-color:#BB2C4F"/>
					<stop  offset="0.9903" style="stop-color:#BA2822"/>
				</linearGradient>
				<path class="st9" d="M250.3,168.8c0,1.6-0.5,3-1.5,4.1c-0.2,0.2-0.4,0.4-0.6,0.6c-2,1.7-5.3,2.5-9.7,2.3l-11.7-0.6l-62.2-3.4
					c-4.9-0.3-8.6-1.9-11-4.6c-0.5-0.6-1-1.2-1.4-1.9c-1.2-2.2-1.7-4.7-1.3-7.5c0-0.3,0.1-0.5,0.2-0.8c0-0.3,0.1-0.6,0.2-0.9
					c0.3-1.5,0.9-3,1.6-4.5l23.9-46.6c5.4-10.5,15.9-11.6,23.3-2.4l46.4,57.7c0.5,0.6,0.8,1.1,1.2,1.6c0.5,0.7,0.9,1.4,1.2,2
					c0.3,0.5,0.5,0.9,0.6,1.3c0.2,0.5,0.4,0.9,0.5,1.3c0.1,0.4,0.2,0.8,0.3,1.2C250.3,168,250.3,168.4,250.3,168.8z"/>
				<path class="st10" d="M250.3,168.8c0,1.6-0.5,3-1.5,4.1c-0.2,0.2-0.4,0.4-0.6,0.6c-2,1.7-5.3,2.5-9.7,2.3l-11.7-0.6l-62.2-3.4
					c-4.9-0.3-8.6-1.9-11-4.6c-0.5-0.6-1-1.2-1.4-1.9c-1.2-2.2-1.7-4.7-1.3-7.5c0-0.3,0.1-0.5,0.2-0.8c0-0.3,0.1-0.6,0.2-1l0.1,0.1
					c1.8,4.2,6.3,7.2,12.8,7.5l69.7,3.8l4.2,0.2c5.6,0.3,9.4-1.1,11-3.7c0.3,0.5,0.5,0.9,0.6,1.3c0.2,0.5,0.4,0.9,0.5,1.3
					c0.1,0.4,0.2,0.8,0.3,1.2C250.3,168,250.3,168.4,250.3,168.8z"/>
			</g>
			<g>
				
					<linearGradient id="SVGID_3_" gradientUnits="userSpaceOnUse" x1="261.7" y1="701.9916" x2="361.285" y2="701.9916" gradientTransform="matrix(1 0 0 1 0 -566)">
					<stop  offset="3.380000e-02" style="stop-color:#BB2C4F"/>
					<stop  offset="0.9903" style="stop-color:#BA2822"/>
				</linearGradient>
				<path class="st11" d="M359.8,165.2c-0.4,0.7-0.9,1.3-1.4,1.9c-2.4,2.7-6.1,4.4-11,4.6l-62.2,3.4l-11.7,0.6
					c-4.5,0.2-7.7-0.6-9.7-2.3c-0.2-0.2-0.5-0.4-0.6-0.6c-1-1.1-1.5-2.5-1.5-4.1c0-0.4,0.1-0.8,0.1-1.1c0.1-0.4,0.2-0.8,0.3-1.2
					c0.1-0.4,0.3-0.9,0.5-1.3c0.2-0.4,0.4-0.9,0.6-1.3c0.3-0.7,0.7-1.3,1.2-2c0.4-0.5,0.7-1,1.2-1.6l46.4-57.7
					c4.1-5.2,9.3-7.1,13.9-5.9c3.6,0.9,7,3.6,9.4,8.3l1.1,2.2l22.8,44.4c0.8,1.5,1.3,3,1.6,4.5c0.2,0.3,0.2,0.6,0.2,0.9
					c0.1,0.3,0.2,0.6,0.2,0.8C361.5,160.5,361,163.1,359.8,165.2z"/>
				<path class="st10" d="M273.5,175.7l73.9-4c10.1-0.5,15.4-7.3,13.4-15.8c-1.9,4.3-6.4,7.2-12.8,7.5l-73.9,4
					c-5.6,0.3-9.4-1.1-11-3.7C259.3,171.1,263.3,176.3,273.5,175.7z"/>
			</g>
		</g>
	</g>
	<path class="st12" d="M404.1,194.6v45.7c0,1.7-0.3,3.4-0.7,5.1c-2,7-8.1,12.2-15.5,13.2v145.3c0,6.6-5.4,12-12,12H136.1
		c-6.7,0-12-5.4-12-12V388l101.8-101.8l4-4l23.2-23.2l50.5-50.5l32.2-32.2h49.7C395.8,176.1,404.1,184.4,404.1,194.6z"/>
</g>
</svg>
