<svg xmlns="http://www.w3.org/2000/svg" viewBox="0 0 660 660"><defs><style>.cls-1{fill:#edc;}.cls-2{fill:#333;}</style></defs><g id="レイヤー_2" data-name="レイヤー 2"><g id="_2" data-name="2"><rect class="cls-1" width="660" height="660"/><path class="cls-2" d="M411.59,221.28c23.42-7.69,42.75-20.22,56.57-35.33a92.09,92.09,0,0,0,16.3-24.47,66.91,66.91,0,0,0,6.06-27.16,55.66,55.66,0,0,0-3-18.32,61,61,0,0,0-9.77-17.89,62.62,62.62,0,0,0-22.89-18A67.31,67.31,0,0,0,426.59,74,69,69,0,0,0,405,77.47a72,72,0,0,0-29.49,18.77c-8.63,9-15.62,20.74-20.21,34.91-6,18.42-24,60.23-24.45,61.25h-1.71c-.51-1-18.46-42.83-24.45-61.25a95.39,95.39,0,0,0-12.16-25,75.39,75.39,0,0,0-27.08-24.27A69.2,69.2,0,0,0,233.39,74a66.61,66.61,0,0,0-36.68,10.87A61.24,61.24,0,0,0,172.51,116a55.45,55.45,0,0,0-3,18.32,63.57,63.57,0,0,0,2.77,18.32,84.78,84.78,0,0,0,16.25,29.48c11.27,13.6,26.87,25.32,45.81,33.74a162.4,162.4,0,0,0,65.91,13.47c14,0,29.25.12,29.78,0,.54.12,15.81,0,29.79,0A166.09,166.09,0,0,0,411.59,221.28Zm-20.54-98.82a46.58,46.58,0,0,1,16.74-15.14,40.66,40.66,0,0,1,18.8-4.65,37.81,37.81,0,0,1,20.86,6.12,32.9,32.9,0,0,1,7.75,7.08,32.47,32.47,0,0,1,5.18,9.5,27.47,27.47,0,0,1,1.46,8.94,34.88,34.88,0,0,1-1.57,10.09,56,56,0,0,1-10.87,19.43c-8.08,9.78-20.14,19.07-35.35,25.81a133.52,133.52,0,0,1-54.27,11c-1.11,0-2.19,0-3.23-.05,7.53-12.63,16.63-31.75,26-60.6A67.1,67.1,0,0,1,391.05,122.46ZM201.74,149.84a38.23,38.23,0,0,1-3.59-15.52,26.81,26.81,0,0,1,1.46-8.93v0a31.79,31.79,0,0,1,5.18-9.5,33.58,33.58,0,0,1,12.41-9.68,38.56,38.56,0,0,1,16.18-3.52,40.21,40.21,0,0,1,12.63,2,43.28,43.28,0,0,1,17.74,11.37c5.41,5.66,10.24,13.41,13.67,23.93,9.37,28.84,18.48,48,26,60.6-1.05,0-2.12,0-3.24,0A137.36,137.36,0,0,1,257.32,194c-19-6.23-34.23-16.35-44.32-27.41A63.23,63.23,0,0,1,201.74,149.84Z"/><polygon class="cls-2" points="345.91 251.96 345.91 347.39 528.84 347.39 528.84 345.97 528.84 314.63 528.84 251.96 345.91 251.96"/><polygon class="cls-2" points="131.16 314.63 131.16 345.97 131.16 347.39 314.09 347.39 314.09 251.96 131.16 251.96 131.16 314.63"/><path class="cls-2" d="M345.91,586H467.84a45.09,45.09,0,0,0,45.09-45.09V379.2h-167Z"/><path class="cls-2" d="M147.07,540.91A45.09,45.09,0,0,0,192.16,586H314.09V379.2h-167Z"/></g></g></svg>