<svg xmlns="http://www.w3.org/2000/svg" viewBox="0 0 600 530.36"><defs><style>.cls-1{fill:#fff;}.cls-2{opacity:0.5;}.cls-3{fill:#f9a332;}</style></defs><g id="レイヤー_2" data-name="レイヤー 2"><g id="レイヤー_2-2" data-name="レイヤー 2"><path class="cls-1" d="M80.65,0S69.6,33.15,58.55,33.15,36.45,44.2,25.4,110.49-18.79,221,14.35,232s44.2-33.15,44.2-33.15,11,11.05,33.15,0,11-33.14,11-33.14,11,11,22.09,33.14,0,88.4,11,99.44c0,0-121.54,77.35-121.54,88.4S66.29,460.81,68,468s40.9,0,40.9,0L69.6,397.77l66.29-44.2s11.05-11.05,11.05,0S158,530.36,158,530.36h33.15s0-176.79,11.05-187.84,66.29,11.05,99.44,11.05,99.44-22.1,110.49-22.1,11.05,11,11.05,22.1S390,530.36,390,530.36h33.15l22.1-88.4,11.05,88.4h33.14V228.49c0-7.51,0-62.75-44.19-62.75H279.53s-11-33.15-66.29-88.4C185.07,49.17,102.75,22.1,102.75,22.1S91.7,0,80.65,0Z"/><path class="cls-1" d="M474.9,193s50.57-16.22,98.86,72.17S588.9,397.77,588.9,397.77l-11-33.15-11.05,33.15-11-33.15-18.31,33.15s5-168.25-54.65-189.09Z"/><g class="cls-2"><circle class="cls-3" cx="304.9" cy="223" r="12.17"/><circle class="cls-3" cx="304.9" cy="204.74" r="4.57"/><circle class="cls-3" cx="304.9" cy="195.61" r="3.04"/><circle class="cls-3" cx="304.9" cy="189.52" r="1.52"/><circle class="cls-3" cx="291.98" cy="210.09" r="4.57"/><circle class="cls-3" cx="285.53" cy="203.63" r="3.04"/><circle class="cls-3" cx="281.22" cy="199.33" r="1.52"/><circle class="cls-3" cx="286.64" cy="223" r="4.57"/><circle class="cls-3" cx="277.5" cy="223" r="3.04"/><circle class="cls-3" cx="271.42" cy="223" r="1.52"/><circle class="cls-3" cx="291.98" cy="235.91" r="4.57"/><circle class="cls-3" cx="285.53" cy="242.37" r="3.04"/><circle class="cls-3" cx="281.22" cy="246.67" r="1.52"/><circle class="cls-3" cx="304.9" cy="241.26" r="4.57"/><circle class="cls-3" cx="304.9" cy="250.39" r="3.04"/><circle class="cls-3" cx="304.9" cy="256.48" r="1.52"/><circle class="cls-3" cx="317.81" cy="235.91" r="4.57"/><circle class="cls-3" cx="324.26" cy="242.37" r="3.04"/><circle class="cls-3" cx="328.57" cy="246.67" r="1.52"/><circle class="cls-3" cx="323.16" cy="223" r="4.57"/><circle class="cls-3" cx="332.29" cy="223" r="3.04"/><circle class="cls-3" cx="338.37" cy="223" r="1.52"/><circle class="cls-3" cx="317.81" cy="210.09" r="4.57"/><circle class="cls-3" cx="324.26" cy="203.63" r="3.04"/><circle class="cls-3" cx="328.57" cy="199.33" r="1.52"/></g><g class="cls-2"><circle class="cls-3" cx="409.9" cy="223" r="12.17"/><circle class="cls-3" cx="409.9" cy="204.74" r="4.57"/><circle class="cls-3" cx="409.9" cy="195.61" r="3.04"/><circle class="cls-3" cx="409.9" cy="189.52" r="1.52"/><circle class="cls-3" cx="396.98" cy="210.09" r="4.57"/><circle class="cls-3" cx="390.53" cy="203.63" r="3.04"/><circle class="cls-3" cx="386.22" cy="199.33" r="1.52"/><circle class="cls-3" cx="391.64" cy="223" r="4.57"/><circle class="cls-3" cx="382.5" cy="223" r="3.04"/><circle class="cls-3" cx="376.42" cy="223" r="1.52"/><circle class="cls-3" cx="396.98" cy="235.91" r="4.57"/><circle class="cls-3" cx="390.53" cy="242.37" r="3.04"/><circle class="cls-3" cx="386.22" cy="246.67" r="1.52"/><circle class="cls-3" cx="409.9" cy="241.26" r="4.57"/><circle class="cls-3" cx="409.9" cy="250.39" r="3.04"/><circle class="cls-3" cx="409.9" cy="256.48" r="1.52"/><circle class="cls-3" cx="422.81" cy="235.91" r="4.57"/><circle class="cls-3" cx="429.26" cy="242.37" r="3.04"/><circle class="cls-3" cx="433.57" cy="246.67" r="1.52"/><circle class="cls-3" cx="428.16" cy="223" r="4.57"/><circle class="cls-3" cx="437.29" cy="223" r="3.04"/><circle class="cls-3" cx="443.37" cy="223" r="1.52"/><circle class="cls-3" cx="422.81" cy="210.09" r="4.57"/><circle class="cls-3" cx="429.26" cy="203.63" r="3.04"/><circle class="cls-3" cx="433.57" cy="199.33" r="1.52"/></g><g class="cls-2"><circle class="cls-3" cx="206.9" cy="223" r="12.17"/><circle class="cls-3" cx="206.9" cy="204.74" r="4.57"/><circle class="cls-3" cx="206.9" cy="195.61" r="3.04"/><circle class="cls-3" cx="206.9" cy="189.52" r="1.52"/><circle class="cls-3" cx="193.98" cy="210.09" r="4.57"/><circle class="cls-3" cx="187.53" cy="203.63" r="3.04"/><circle class="cls-3" cx="183.22" cy="199.33" r="1.52"/><circle class="cls-3" cx="188.64" cy="223" r="4.57"/><circle class="cls-3" cx="179.5" cy="223" r="3.04"/><circle class="cls-3" cx="173.42" cy="223" r="1.52"/><circle class="cls-3" cx="193.98" cy="235.91" r="4.57"/><circle class="cls-3" cx="187.53" cy="242.37" r="3.04"/><circle class="cls-3" cx="183.22" cy="246.67" r="1.52"/><circle class="cls-3" cx="206.9" cy="241.26" r="4.57"/><circle class="cls-3" cx="206.9" cy="250.39" r="3.04"/><circle class="cls-3" cx="206.9" cy="256.48" r="1.52"/><circle class="cls-3" cx="219.81" cy="235.91" r="4.57"/><circle class="cls-3" cx="226.26" cy="242.37" r="3.04"/><circle class="cls-3" cx="230.57" cy="246.67" r="1.52"/><circle class="cls-3" cx="225.16" cy="223" r="4.57"/><circle class="cls-3" cx="234.29" cy="223" r="3.04"/><circle class="cls-3" cx="240.37" cy="223" r="1.52"/><circle class="cls-3" cx="219.81" cy="210.09" r="4.57"/><circle class="cls-3" cx="226.26" cy="203.63" r="3.04"/><circle class="cls-3" cx="230.57" cy="199.33" r="1.52"/></g></g></g></svg>