<?xml version="1.0" encoding="iso-8859-1"?>
<!-- Generator: Adobe Illustrator 18.0.0, SVG Export Plug-In . SVG Version: 6.00 Build 0)  -->
<!DOCTYPE svg PUBLIC "-//W3C//DTD SVG 1.1//EN" "http://www.w3.org/Graphics/SVG/1.1/DTD/svg11.dtd">
<svg version="1.1" id="_x31_" xmlns="http://www.w3.org/2000/svg" xmlns:xlink="http://www.w3.org/1999/xlink" x="0px" y="0px"
	 viewBox="0 0 512 512" style="enable-background:new 0 0 512 512;" xml:space="preserve">
<g>
	<rect style="fill:#F6B597;" width="512" height="512"/>
	<path style="opacity:0.1;fill:#040000;" d="M512,305.51V512H227.738L107.52,391.783l-16.23-16.231
		c-0.512-1.792-0.768-3.686-0.768-5.632v-21.402c-7.782-6.912-12.698-16.998-12.698-28.211c0-10.496,4.301-20.019,11.213-26.931
		c0.461-0.461,0.973-0.973,1.485-1.331v-21.402c0-10.906,7.885-20.07,18.228-22.118v-0.051c0.716-6.963,1.843-13.824,3.379-20.531
		l0.563-0.614l43.93-43.93l65.843-65.792c0,0,0-0.051,0.051-0.051l10.394-10.394l0.051-0.051l3.379-3.43
		c6.4-0.819,12.953-1.229,19.558-1.229c0.051,0,0.051,0,0.102,0c0.051,0,0.051,0,0.103,0c25.242,0,49.306,6.195,70.349,17.51
		L512,305.51z"/>
	<g>
		<g>
			<g>
				<g>
					<g>
						<g>
							<path style="fill:#C7BA81;" d="M256,113.938v28.467c-37.786,0-71.322,18.073-91.802,45.824
								c-12.646,16.947-20.326,37.529-21.094,59.853c-0.102,1.28-0.102,2.611-0.102,3.942c0,5.069,0.358,10.189,1.075,15.155
								l-2.202,0.256l-5.683,0.614l-24.474,2.663c-0.87-6.144-1.331-12.442-1.331-18.688c0-1.28,0-2.509,0.103-3.789
								c0.307-12.442,2.355-24.576,6.042-36.199c1.331-4.249,2.918-8.448,4.71-12.595c4.301-9.831,9.779-19.251,16.435-27.955
								c4.403-5.837,9.37-11.417,14.797-16.64C180.071,128.478,216.781,113.938,256,113.938z"/>
						</g>
						<path style="fill:#FBECBA;" d="M256,105.165v28.467c-38.758,0-73.267,20.583-95.181,52.429
							c-12.237,17.715-20.48,38.912-23.398,62.003v0.051c-0.819,6.144-1.229,12.39-1.229,18.739v1.177
							c0.051,4.813,0.358,9.728,0.87,14.541l-11.162,1.382l-17.05,2.15c-0.102-1.075-0.256-2.15-0.307-3.226v-0.051
							c-0.512-5.325-0.768-10.65-0.768-15.974c0-6.195,0.307-12.288,0.973-18.33v-0.051c0.716-6.963,1.843-13.824,3.379-20.531
							c1.177-5.376,2.662-10.701,4.403-15.923c1.331-4.249,2.918-8.448,4.71-12.595c0.512-1.229,1.024-2.458,1.69-3.687
							c3.789-8.704,8.448-17.049,13.824-24.883c4.199-6.246,8.909-12.186,13.978-17.818c22.579-24.832,51.149-40.653,82.176-45.875
							l0.051-0.051C240.538,105.83,248.218,105.165,256,105.165z"/>
					</g>
					<g>
						<g>
							<path style="fill:#535955;" d="M125.901,282.163V358.4h-9.933c-9.779,0-18.688-3.737-25.446-9.882
								c-7.782-6.912-12.698-16.998-12.698-28.211c0-10.496,4.301-20.019,11.213-26.931c0.461-0.461,0.973-0.973,1.485-1.331
								c5.018-4.557,11.213-7.782,18.022-9.165c2.407-0.461,4.864-0.717,7.424-0.717H125.901z"/>
							<path style="fill:#85BCC4;" d="M162.714,259.226v122.112c0,6.144-4.967,11.162-11.11,11.162h-38.502
								c-1.946,0-3.789-0.256-5.581-0.717c-7.936-2.048-14.233-8.294-16.23-16.231c-0.512-1.792-0.768-3.686-0.768-5.632v-99.277
								c0-10.906,7.885-20.07,18.228-22.118c0.563-0.102,1.126-0.205,1.741-0.256c0.87-0.102,1.741-0.153,2.611-0.153h38.502
								C157.747,248.115,162.714,253.082,162.714,259.226z"/>
							<path style="opacity:0.1;fill:#050101;" d="M178.727,259.214v122.144c0,6.145-4.984,11.124-11.124,11.124h-25.145
								c-0.379-2.299-0.575-4.685-0.575-7.14V248.09h25.72C173.743,248.09,178.727,253.074,178.727,259.214z"/>
							<path style="fill:#535955;" d="M166.41,409.531L166.41,409.531c-9.011,0-16.383-7.372-16.383-16.383V247.424
								c0-9.011,7.372-16.383,16.383-16.383l0,0c9.011,0,16.383,7.372,16.383,16.383v145.724
								C182.793,402.159,175.42,409.531,166.41,409.531z"/>
						</g>
					</g>
				</g>
				<g>
					<path style="fill:#908265;" d="M256,102.451v40.96c-0.051,0-0.051,0-0.102,0c-6.758,0-13.414,0.666-19.866,1.843
						c-2.048,0.41-4.045,0.819-6.042,1.331c-3.328,0.819-6.605,1.792-9.779,2.97c-21.453,7.424-40.55,21.248-55.808,38.809
						l-0.205-0.153l-2.765-1.741l-0.614-0.409l-4.199-2.662l-18.944-11.93l-0.922-0.614l-3.481-2.202
						c22.784-35.994,60.416-59.443,103.066-64.973c6.4-0.819,12.953-1.229,19.558-1.229
						C255.949,102.451,255.949,102.451,256,102.451z"/>
				</g>
				<g>
					<path style="fill:#6A675C;" d="M256,136.158v7.271c-0.051,0-0.051,0-0.102,0c-6.758,0-13.415,0.666-19.866,1.843
						c-2.048,0.41-4.045,0.819-6.042,1.331c-3.328,0.819-6.605,1.792-9.779,2.97c-21.453,7.424-40.55,21.248-55.808,38.809
						l-0.205-0.153l-2.765-1.741C184.32,157.509,218.573,136.619,256,136.158z"/>
				</g>
			</g>
			<g>
				<g>
					<g>
						<g>
							<path style="fill:#C7BA81;" d="M256,113.938v28.467c37.786,0,71.322,18.073,91.802,45.824
								c12.646,16.947,20.326,37.529,21.094,59.853c0.102,1.28,0.102,2.611,0.102,3.942c0,5.069-0.358,10.189-1.075,15.155
								l2.202,0.256l5.683,0.614l24.474,2.663c0.87-6.144,1.331-12.442,1.331-18.688c0-1.28,0-2.509-0.103-3.789
								c-0.307-12.442-2.355-24.576-6.042-36.199c-1.331-4.249-2.918-8.448-4.71-12.595c-4.301-9.831-9.779-19.251-16.435-27.955
								c-4.403-5.837-9.37-11.417-14.797-16.64C331.929,128.478,295.219,113.938,256,113.938z"/>
						</g>
						<path style="fill:#FBECBA;" d="M256,105.182v28.467c38.758,0,73.267,20.583,95.181,52.429
							c12.237,17.715,20.48,38.912,23.398,62.003c0.819,6.144,1.229,12.442,1.229,18.79v1.178c-0.051,4.813-0.358,9.728-0.87,14.541
							l11.162,1.383l17.05,2.15c0.103-1.075,0.256-2.202,0.307-3.277c0.512-5.325,0.768-10.65,0.768-15.974
							c0-6.195-0.307-12.339-0.973-18.381c-1.28-12.544-3.891-24.729-7.783-36.454c-1.331-4.249-2.918-8.448-4.71-12.595
							c-4.198-10.035-9.37-19.61-15.514-28.57c-4.198-6.246-8.909-12.186-13.978-17.818
							C333.209,122.181,295.833,105.182,256,105.182z"/>
					</g>
					<g>
						<g>
							<path style="fill:#535955;" d="M386.117,358.422h9.916c20.975,0,38.136-17.161,38.136-38.136l0,0
								c0-20.975-17.161-38.136-38.136-38.136h-9.916V358.422z"/>
							<path style="fill:#85BCC4;" d="M349.273,259.214v122.144c0,6.145,4.984,11.124,11.124,11.124h38.522
								c12.406,0,22.552-10.147,22.552-22.547v-99.292c0-12.406-10.146-22.552-22.552-22.552h-38.522
								C354.257,248.09,349.273,253.074,349.273,259.214z"/>
							<path style="opacity:0.1;fill:#050101;" d="M333.273,259.214v122.144c0,6.145,4.984,11.124,11.124,11.124h25.145
								c0.379-2.299,0.575-4.685,0.575-7.14V248.09h-25.72C338.257,248.09,333.273,253.074,333.273,259.214z"/>
							<path style="fill:#535955;" d="M345.59,409.531L345.59,409.531c9.011,0,16.383-7.372,16.383-16.383V247.424
								c0-9.011-7.372-16.383-16.383-16.383l0,0c-9.011,0-16.383,7.372-16.383,16.383v145.724
								C329.207,402.159,336.58,409.531,345.59,409.531z"/>
						</g>
					</g>
				</g>
				<g>
					<path style="fill:#908265;" d="M378.727,168.653l-2.202,1.382l-1.28,0.819l-0.922,0.614l-23.143,14.592l-0.614,0.409
						l-2.765,1.741l-0.205,0.153c-2.816-3.174-5.734-6.298-8.755-9.216c-1.024-1.024-2.048-1.997-3.072-2.919
						c-12.902-11.776-27.75-21.043-43.981-26.675c-3.175-1.178-6.451-2.151-9.779-2.97c-1.997-0.512-3.993-0.922-6.042-1.331
						c-6.451-1.177-13.107-1.843-19.866-1.843c-0.051,0-0.051,0-0.103,0v-40.96c0.051,0,0.051,0,0.103,0
						c25.242,0,49.306,6.195,70.349,17.51c19.302,10.394,35.994,25.139,48.742,43.418C376.422,165.12,377.6,166.861,378.727,168.653
						z"/>
				</g>
				<g>
					<path style="fill:#6A675C;" d="M256,136.158v7.271c0.051,0,0.051,0,0.102,0c6.758,0,13.415,0.666,19.866,1.843
						c2.048,0.41,4.045,0.819,6.042,1.331c3.328,0.819,6.605,1.792,9.779,2.97c21.453,7.424,40.55,21.248,55.808,38.809l0.205-0.153
						l2.765-1.741C327.68,157.509,293.427,136.619,256,136.158z"/>
				</g>
			</g>
		</g>
		<g style="opacity:0.1;">
			<path style="fill:#040000;" d="M142.458,392.481h7.568v0.667c0,9.011,7.372,16.383,16.383,16.383
				c9.011,0,16.383-7.372,16.383-16.383v-63.941l-63.274,63.274H142.458z"/>
			<path style="fill:#040000;" d="M421.472,291.993v-21.351c0-10.922-7.87-20.075-18.217-22.112
				c-0.002-0.013-0.002-0.026-0.003-0.039c-1.28-12.544-3.891-24.729-7.783-36.454c-1.331-4.249-2.918-8.448-4.71-12.595
				c-4.198-10.035-9.37-19.61-15.514-28.57l3.482-2.202c-4.554-7.196-9.735-13.853-15.395-20.002l-27.575,27.575
				c4.158,3.801,8.117,7.854,11.84,12.139l0.205-0.153c12.646,16.947,20.326,37.529,21.094,59.853c0,0.003,0,0.006,0,0.008h-6.923
				v-0.665c0-9.011-7.372-16.383-16.383-16.383c-9.011,0-16.383,7.372-16.383,16.383v145.724c0,9.011,7.372,16.383,16.383,16.383
				c9.011,0,16.383-7.372,16.383-16.383v-0.667h7.568h29.378c12.406,0,22.552-10.147,22.552-22.547v-21.355
				c7.766-6.994,12.698-17.083,12.698-28.293S429.238,298.987,421.472,291.993z"/>
		</g>
	</g>
</g>
</svg>
