<?xml version="1.0" encoding="utf-8"?>
<!-- Generator: Adobe Illustrator 24.3.0, SVG Export Plug-In . SVG Version: 6.00 Build 0)  -->
<svg version="1.1" id="_x33_" xmlns="http://www.w3.org/2000/svg" xmlns:xlink="http://www.w3.org/1999/xlink" x="0px" y="0px"
	 viewBox="0 0 512 512" style="enable-background:new 0 0 512 512;" xml:space="preserve">
<style type="text/css">
	.st0{fill:#FF9A55;}
	.st1{opacity:0.1;fill:#040000;enable-background:new    ;}
	.st2{fill:#D3D1D5;}
	.st3{fill:#BBBBBA;}
	.st4{fill:#F6F5FA;}
	.st5{fill:#373232;}
	.st6{fill:#F4F4F5;}
	.st7{fill:#B6B1A7;}
</style>
<rect class="st0" width="512" height="512"/>
<polygon class="st1" points="512,207.4 512,512 252.9,512 95.6,354.7 81,340.1 81,247.2 96.6,231.6 102.1,226 119.6,208.6 
	159,169.2 177.3,150.9 181.2,147 196.1,132 216.2,112 416.6,112 "/>
<g>
	<g>
		<polygon class="st2" points="314.4,389.7 200.1,389.7 204.1,303.9 310.4,303.9 		"/>
		<polygon class="st3" points="312.9,361.7 201.6,361.7 204.1,307.4 310.4,307.4 		"/>
		<path class="st4" d="M181.1,382.5h152.2c9.6,0,17.5,7.9,17.5,17.5l0,0H163.7l0,0C163.7,390.4,171.5,382.5,181.1,382.5z"/>
	</g>
	<path class="st4" d="M431,239.4v107.6c0,4.3-3.5,7.8-7.7,7.8H88.7c-4.3,0-7.7-3.5-7.7-7.8V239.4c0-4.3,3.5-7.8,7.7-7.8h334.5
		C427.5,231.6,431,235.1,431,239.4z"/>
	<path class="st5" d="M431,122.1v196H81v-196h0.3c1.2-5.8,6.3-10.1,12.4-10.1h324.6c6.1,0,11.3,4.4,12.4,10.1H431z"/>
	<rect x="102.1" y="132.1" class="st6" width="307.7" height="166"/>
	<g>
		<rect x="119.6" y="169.2" class="st7" width="83.4" height="40.7"/>
		<rect x="215.5" y="169.2" class="st7" width="83.4" height="40.7"/>
		<rect x="311.5" y="169.2" class="st7" width="83.4" height="40.7"/>
		<rect x="119.6" y="216.5" class="st7" width="47.7" height="7.7"/>
		<rect x="140.1" y="147" class="st7" width="47.7" height="3.9"/>
		<rect x="119.6" y="272.3" class="st7" width="47.7" height="7.7"/>
		<rect x="119.6" y="229" class="st7" width="84" height="7.7"/>
		<rect x="119.6" y="243.4" class="st7" width="84" height="7.7"/>
		<rect x="119.6" y="257.8" class="st7" width="84" height="7.7"/>
		<rect x="217" y="216.5" class="st7" width="47.7" height="7.7"/>
		<rect x="217" y="272.3" class="st7" width="47.7" height="7.7"/>
		<rect x="217" y="229" class="st7" width="84" height="7.7"/>
		<rect x="217" y="243.4" class="st7" width="84" height="7.7"/>
		<rect x="217" y="257.8" class="st7" width="84" height="7.7"/>
		<rect x="311.4" y="216.5" class="st7" width="47.7" height="7.7"/>
		<rect x="311.4" y="272.3" class="st7" width="47.7" height="7.7"/>
		<rect x="311.4" y="229" class="st7" width="84" height="7.7"/>
		<rect x="311.4" y="243.4" class="st7" width="84" height="7.7"/>
		<rect x="311.4" y="257.8" class="st7" width="84" height="7.7"/>
		<path class="st7" d="M130.8,144.8L130.8,144.8c2.3,2.3,2.3,5.9,0,8.2l0,0c-2.3,2.3-5.9,2.3-8.2,0l0,0c-2.3-2.3-2.3-5.9,0-8.2l0,0
			C124.8,142.6,128.5,142.6,130.8,144.8z"/>
		
			<rect x="372.9" y="146.2" transform="matrix(0.7071 -0.7071 0.7071 0.7071 4.7137 309.2639)" class="st7" width="5.5" height="5.5"/>
		
			<rect x="386.2" y="146.2" transform="matrix(0.7071 -0.7071 0.7071 0.7071 8.5995 318.6404)" class="st7" width="5.5" height="5.5"/>
		
			<rect x="361.2" y="146.2" transform="matrix(0.7071 -0.7071 0.7071 0.7071 1.2673 300.9429)" class="st7" width="5.5" height="5.5"/>
	</g>
</g>
</svg>
