<svg xmlns="http://www.w3.org/2000/svg" viewBox="0 0 26 26"><defs><style>.cls-1{fill:none;}.cls-2{fill:#edc;}.cls-3{fill:#333;}</style></defs><g id="レイヤー_2" data-name="レイヤー 2"><g id="レイヤー_1-2" data-name="レイヤー 1"><path class="cls-1" d="M1,1H25V25H1Z"/><rect class="cls-2" width="26" height="26"/><path class="cls-3" d="M17,12a3,3,0,1,0-3-3A3,3,0,0,0,17,12ZM9,12A3,3,0,1,0,6,9,3,3,0,0,0,9,12Zm0,2c-2.33,0-7,1.17-7,3.5V20H16V17.5C16,15.17,11.33,14,9,14Zm8,0c-.29,0-.62,0-1,.05a4.22,4.22,0,0,1,2,3.45V20h6V17.5C24,15.17,19.33,14,17,14Z"/></g></g></svg>