<?xml version="1.0" encoding="iso-8859-1"?>
<!-- Generator: Adobe Illustrator 18.0.0, SVG Export Plug-In . SVG Version: 6.00 Build 0)  -->
<!DOCTYPE svg PUBLIC "-//W3C//DTD SVG 1.1//EN" "http://www.w3.org/Graphics/SVG/1.1/DTD/svg11.dtd">
<svg version="1.1" id="_x31_" xmlns="http://www.w3.org/2000/svg" xmlns:xlink="http://www.w3.org/1999/xlink" x="0px" y="0px"
	 viewBox="0 0 512 512" style="enable-background:new 0 0 512 512;" xml:space="preserve">
<g>
	<rect style="fill:#E67A85;" width="512" height="512"/>
	<path style="opacity:0.1;fill:#040000;" d="M451.635,113.562l-10.855-10.854c-0.358-0.051-0.716-0.051-1.075-0.051h-60.365
		l-6.144,32.768H97.229v142.285l3.657,0.542l34.888,34.888h-12.126c-6.605,0-11.981,5.376-11.981,11.981
		c0,5.255,3.425,9.683,8.143,11.293l-0.227,0.227l18.785,18.785c-2.055,4.709-3.201,9.905-3.201,15.365
		c0,4.71,0.819,9.165,2.407,13.312l22.835,22.835L265.472,512H512V173.926L451.635,113.562z"/>
	<g>
		<g>
			<g>
				<path style="fill:#484747;" d="M318.669,337.101c-5.53-3.072-11.93-4.864-18.739-4.864c-6.81,0-13.21,1.792-18.739,4.864
					c-11.827,6.605-19.814,19.251-19.814,33.69c0,21.248,17.254,38.553,38.554,38.553c21.248,0,38.502-17.306,38.502-38.553
					C338.432,356.352,330.445,343.705,318.669,337.101z M299.93,385.382c-8.09,0-14.643-6.553-14.643-14.592
					c0-8.038,6.554-14.592,14.643-14.592c8.038,0,14.592,6.554,14.592,14.592C314.522,378.829,307.968,385.382,299.93,385.382z"/>
			</g>
			<g>
				<path style="fill:#484747;" d="M192.41,337.101c-0.307-0.153-0.563-0.307-0.871-0.461c-2.662-1.434-5.529-2.509-8.499-3.226
					c-2.97-0.768-6.093-1.178-9.318-1.178c-6.758,0-13.158,1.792-18.688,4.864c-11.827,6.554-19.866,19.2-19.866,33.69
					c0,4.71,0.819,9.165,2.407,13.312c3.84,10.547,12.237,18.944,22.835,22.835c4.147,1.536,8.653,2.406,13.312,2.406
					c21.248,0,38.554-17.306,38.554-38.553C212.275,356.301,204.237,343.654,192.41,337.101z M173.722,385.382
					c-8.038,0-14.592-6.553-14.592-14.592c0-8.038,6.553-14.592,14.592-14.592c8.038,0,14.592,6.554,14.592,14.592
					C188.313,378.829,181.76,385.382,173.722,385.382z"/>
			</g>
			<g>
				<path style="fill:#FBFBFC;" d="M370.094,224.979H112.302c-6.612,0-11.972-5.36-11.972-11.972s5.36-11.972,11.972-11.972h257.792
					c6.612,0,11.972,5.36,11.972,11.972S376.706,224.979,370.094,224.979z"/>
			</g>
			<g>
				<path style="fill:#FBFBFC;" d="M166.387,285.136c-6.612,0-11.972-5.36-11.972-11.972V153.339c0-6.612,5.36-11.972,11.972-11.972
					c6.612,0,11.972,5.36,11.972,11.972v119.825C178.359,279.776,172.999,285.136,166.387,285.136z"/>
			</g>
			<g>
				<path style="fill:#FBFBFC;" d="M240.214,285.136c-6.612,0-11.972-5.36-11.972-11.972V153.339c0-6.612,5.36-11.972,11.972-11.972
					c6.612,0,11.972,5.36,11.972,11.972v119.825C252.186,279.776,246.826,285.136,240.214,285.136z"/>
			</g>
			<g>
				<path style="fill:#FBFBFC;" d="M314.04,301.347c-6.612,0-11.972-5.36-11.972-11.972V154.811c0-6.612,5.36-11.972,11.972-11.972
					c6.612,0,11.972,5.36,11.972,11.972v134.563C326.012,295.987,320.652,301.347,314.04,301.347z"/>
			</g>
			<polygon style="fill:none;" points="386.543,194.404 400.868,126.596 399.214,126.596 			"/>
			<path style="fill:#A8BA3F;" d="M451.686,114.637c0,3.738-1.689,7.014-4.403,9.216c-2.048,1.741-4.71,2.765-7.577,2.765h-38.861
				v-0.051l2.918-13.824l2.15-10.086h33.792c0.358,0,0.717,0,1.075,0.051c2.048,0.153,3.994,0.87,5.581,1.997
				c0.666,0.461,1.229,0.922,1.792,1.485c1.997,1.946,3.226,4.506,3.482,7.373C451.686,113.92,451.686,114.278,451.686,114.637z"/>
			<path style="fill:#FBFBFC;" d="M405.913,102.656l-2.15,10.086l-2.918,13.824v0.051h-1.639l-12.646,67.789l-26.675,142.694
				H123.648c-6.605,0-11.981-5.376-11.981-11.981c0-6.605,5.376-11.981,11.981-11.981h212.736l13.158,1.946
				c0.614,0.103,1.229,0.153,1.792,0.153c5.837,0,10.957-4.301,11.827-10.24c0.973-6.502-3.533-12.595-10.086-13.568l-8.755-1.331
				l12.186-65.126l4.454-23.962l7.783-41.626h11.673c6.605,0,11.93-5.376,11.93-11.981c0-6.4-5.018-11.622-11.315-11.93
				c-0.205-0.051-0.41-0.051-0.614-0.051h-7.219l6.144-32.768H405.913z"/>
			<polygon style="fill:#FBFBFC;" points="373.197,135.424 371.405,145.101 368.742,159.385 121.19,159.385 121.19,257.075 
				154.419,261.99 178.381,265.523 228.25,272.896 241.613,274.893 251.75,276.378 251.802,276.378 302.08,283.853 307.353,284.621 
				325.99,287.385 326.144,287.385 344.32,290.099 340.019,313.139 336.384,313.139 220.518,295.987 97.229,277.709 97.229,135.424 
							"/>
			<path style="fill:#FBFBFC;" d="M380.392,159.375c6.612,0,11.972-5.36,11.972-11.972s-5.36-11.972-11.972-11.972h-7.187
				l-4.474,23.944H380.392z"/>
			<path style="fill:#FBFBFC;" d="M351.334,315.235c5.835,0,10.946-4.273,11.828-10.219c0.969-6.54-3.547-12.628-10.088-13.597
				l-8.774-1.3l-4.303,23.029h-3.636l13.204,1.957C350.159,315.193,350.75,315.235,351.334,315.235z"/>
		</g>
		<polygon style="fill:none;" points="307.35,287.409 325.637,290.119 337.809,224.979 307.35,224.979 		"/>
		<polygon style="fill:none;" points="317.696,313.139 184.678,313.139 201.882,295.987 		"/>
		<path style="opacity:0.1;" d="M451.635,113.562c-0.256-2.867-1.485-5.427-3.482-7.373c-0.512-0.563-1.075-1.075-1.792-1.485
			c-1.587-1.126-3.533-1.843-5.581-1.997c-0.358-0.051-0.716-0.051-1.075-0.051H413.85l-10.087,10.086l-46.643,46.643h11.622
			l-7.783,41.626h-34.918v-10.496l-10.496,10.496l-13.466,13.414l-10.547,10.548h10.547v58.88l-50.278-7.475h-0.051
			c0.256-1.024,0.461-2.099,0.461-3.226v-8.807l-10.598,10.547l-8.09,8.141l-13.005,12.954l115.866,17.152H203.366l-20.326,20.275
			l-3.226,3.226h65.792v0.461h114.278l26.675-142.694l12.646-67.789v-0.051h40.499c2.867,0,5.53-1.024,7.577-2.713
			c2.714-2.202,4.403-5.478,4.403-9.216C451.686,114.278,451.686,113.92,451.635,113.562z M326.144,287.385h-0.103v-62.413h30.413
			l-12.134,65.126L326.144,287.385z"/>
	</g>
</g>
</svg>
