<?xml version="1.0" encoding="iso-8859-1"?>
<!-- Generator: Adobe Illustrator 18.0.0, SVG Export Plug-In . SVG Version: 6.00 Build 0)  -->
<!DOCTYPE svg PUBLIC "-//W3C//DTD SVG 1.1//EN" "http://www.w3.org/Graphics/SVG/1.1/DTD/svg11.dtd">
<svg version="1.1" id="_x33_" xmlns="http://www.w3.org/2000/svg" xmlns:xlink="http://www.w3.org/1999/xlink" x="0px" y="0px"
	 viewBox="0 0 512 512" style="enable-background:new 0 0 512 512;" xml:space="preserve">
<g>
	<rect style="fill:#EBE5D3;" width="512" height="512"/>
	<polygon style="opacity:0.15;fill:#040000;" points="435.149,210.841 425.472,201.165 388.202,174.381 331.38,117.56 
		326.707,111.206 326.707,111.052 185.293,111.052 185.293,111.206 161.331,143.77 159.334,146.431 159.078,145.971 
		158.208,144.435 156.058,150.119 155.802,150.732 155.494,151.604 76.851,208.129 76.851,394.445 194.407,512 512,512 512,287.693 
			"/>
	<g>
		<polygon style="fill:#2C5A58;" points="435.149,208.129 435.149,400.948 76.851,400.948 76.851,208.129 155.494,151.604 
			156.467,150.886 165.427,144.435 185.293,145.51 207.258,146.636 256,149.249 304.742,146.636 326.707,145.51 346.573,144.435 
			351.642,148.07 355.533,150.886 356.506,151.604 425.472,201.165 		"/>
		<g>
			<rect x="185.293" y="111.053" style="fill:#CBCBCB;" width="141.414" height="46.541"/>
			<polygon style="fill:#8D7A39;" points="287.573,343.603 255.999,388.833 224.425,343.603 233.559,276.596 237.735,245.969 
				238.854,237.756 273.144,237.756 274.263,245.969 278.439,276.596 			"/>
			<path style="fill:#D99645;" d="M291.828,211.428l-12.86,27.834c-3.274,7.086-9.324,11.451-15.871,11.451h-14.196
				c-6.547,0-12.597-4.365-15.871-11.451l-12.86-27.834c-5.101-11.042,1.273-24.84,11.476-24.84h48.705
				C290.555,186.587,296.93,200.386,291.828,211.428z"/>
			<g>
				<polygon style="fill:#FFFFFF;" points="231.731,186.572 221.44,214.17 212.122,239.104 211.405,241.05 156.467,150.886 
					156.314,150.579 159.334,146.431 161.331,143.77 185.293,111.206 185.395,111.052 207.258,146.636 213.965,157.594 				"/>
				<polygon style="fill:#FFFFFF;" points="355.687,150.579 355.533,150.886 300.595,241.05 299.878,239.104 290.56,214.17 
					280.269,186.572 298.035,157.594 304.742,146.636 326.605,111.052 326.707,111.206 352.614,146.431 				"/>
			</g>
		</g>
		<polygon style="fill:#459782;" points="312.218,231.629 339.712,269.619 287.744,343.604 256,388.813 224.256,343.604 
			172.288,269.619 199.783,231.629 138.906,195.124 155.494,151.604 155.802,150.732 156.058,150.119 158.208,144.435 
			159.078,145.971 159.334,146.431 160.307,148.121 211.968,238.849 212.122,239.104 233.421,276.582 233.523,276.788 256,316.263 
			278.477,276.788 278.579,276.582 299.878,239.104 300.032,238.849 351.642,148.07 352.614,146.431 352.871,145.971 
			353.792,144.435 355.943,150.119 356.198,150.732 356.506,151.604 373.094,195.124 		"/>
	</g>
	<path style="fill:#459782;" d="M397.955,375.091h-47.334c-8.313,0-15.053-6.739-15.053-15.053v-51.507h77.44v51.507
		C413.008,368.352,406.269,375.091,397.955,375.091z"/>
	<polygon style="opacity:0.1;fill:#040000;" points="356.506,151.564 356.193,150.742 355.946,150.096 353.783,144.423 
		352.896,145.981 352.646,146.421 326.711,111.209 326.711,111.041 256,111.041 256,400.925 435.168,400.925 435.168,208.109 	"/>
</g>
</svg>
